M48
; DRILL file {KiCad 8.0.8} date 2025-03-22T18:56:47+0000
; FORMAT={-:-/ absolute / metric / decimal}
; #@! TF.CreationDate,2025-03-22T18:56:47+00:00
; #@! TF.GenerationSoftware,Kicad,Pcbnew,8.0.8
; #@! TF.FileFunction,Plated,1,2,PTH
FMAT,2
METRIC
; #@! TA.AperFunction,Plated,PTH,ViaDrill
T1C0.300
; #@! TA.AperFunction,Plated,PTH,ComponentDrill
T2C0.740
; #@! TA.AperFunction,Plated,PTH,ComponentDrill
T3C0.991
; #@! TA.AperFunction,Plated,PTH,ComponentDrill
T4C1.400
; #@! TA.AperFunction,Plated,PTH,ComponentDrill
T5C1.600
; #@! TA.AperFunction,Plated,PTH,ComponentDrill
T6C3.200
%
G90
G05
T1
X47.2Y-121.095
X77.051Y-121.092
X106.901Y-121.092
X136.801Y-121.092
T2
X59.25Y-96.55
X59.25Y-97.82
X59.25Y-99.09
X59.25Y-100.36
X59.25Y-101.63
X59.25Y-102.9
X59.25Y-104.17
X59.25Y-110.43
X59.25Y-111.7
X59.25Y-112.97
X59.25Y-114.24
X59.25Y-115.51
X59.25Y-116.78
X59.25Y-118.05
X59.25Y-119.32
X59.25Y-120.59
X59.25Y-121.86
X59.25Y-123.13
X59.25Y-124.4
X59.25Y-125.67
X59.25Y-126.94
X59.25Y-128.21
X66.25Y-97.83
X66.25Y-99.1
X66.25Y-101.64
X66.25Y-102.91
X67.25Y-96.56
X67.25Y-100.37
X67.25Y-104.18
X89.101Y-96.547
X89.101Y-97.817
X89.101Y-99.087
X89.101Y-100.357
X89.101Y-101.627
X89.101Y-102.897
X89.101Y-104.167
X89.101Y-110.427
X89.101Y-111.697
X89.101Y-112.967
X89.101Y-114.237
X89.101Y-115.507
X89.101Y-116.777
X89.101Y-118.047
X89.101Y-119.317
X89.101Y-120.587
X89.101Y-121.857
X89.101Y-123.127
X89.101Y-124.397
X89.101Y-125.667
X89.101Y-126.937
X89.101Y-128.207
X96.101Y-97.827
X96.101Y-99.097
X96.101Y-101.637
X96.101Y-102.907
X97.101Y-96.557
X97.101Y-100.367
X97.101Y-104.177
X118.951Y-96.547
X118.951Y-97.817
X118.951Y-99.087
X118.951Y-100.357
X118.951Y-101.627
X118.951Y-102.897
X118.951Y-104.167
X118.951Y-110.427
X118.951Y-111.697
X118.951Y-112.967
X118.951Y-114.237
X118.951Y-115.507
X118.951Y-116.777
X118.951Y-118.047
X118.951Y-119.317
X118.951Y-120.587
X118.951Y-121.857
X118.951Y-123.127
X118.951Y-124.397
X118.951Y-125.667
X118.951Y-126.937
X118.951Y-128.207
X125.951Y-97.827
X125.951Y-99.097
X125.951Y-101.637
X125.951Y-102.907
X126.951Y-96.557
X126.951Y-100.367
X126.951Y-104.177
X148.851Y-96.547
X148.851Y-97.817
X148.851Y-99.087
X148.851Y-100.357
X148.851Y-101.627
X148.851Y-102.897
X148.851Y-104.167
X148.851Y-110.427
X148.851Y-111.697
X148.851Y-112.967
X148.851Y-114.237
X148.851Y-115.507
X148.851Y-116.777
X148.851Y-118.047
X148.851Y-119.317
X148.851Y-120.587
X148.851Y-121.857
X148.851Y-123.127
X148.851Y-124.397
X148.851Y-125.667
X148.851Y-126.937
X148.851Y-128.207
X155.851Y-97.827
X155.851Y-99.097
X155.851Y-101.637
X155.851Y-102.907
X156.851Y-96.557
X156.851Y-100.367
X156.851Y-104.177
X178.651Y-96.547
X178.651Y-97.817
X178.651Y-99.087
X178.651Y-100.357
X178.651Y-101.627
X178.651Y-102.897
X178.651Y-104.167
X178.651Y-110.427
X178.651Y-111.697
X178.651Y-112.967
X178.651Y-114.237
X178.651Y-115.507
X178.651Y-116.777
X178.651Y-118.047
X178.651Y-119.317
X178.651Y-120.587
X178.651Y-121.857
X178.651Y-123.127
X178.651Y-124.397
X178.651Y-125.667
X178.651Y-126.937
X178.651Y-128.207
X185.651Y-97.827
X185.651Y-99.097
X185.651Y-101.637
X185.651Y-102.907
X186.651Y-96.557
X186.651Y-100.367
X186.651Y-104.177
X208.551Y-96.547
X208.551Y-97.817
X208.551Y-99.087
X208.551Y-100.357
X208.551Y-101.627
X208.551Y-102.897
X208.551Y-104.167
X208.551Y-110.427
X208.551Y-111.697
X208.551Y-112.967
X208.551Y-114.237
X208.551Y-115.507
X208.551Y-116.777
X208.551Y-118.047
X208.551Y-119.317
X208.551Y-120.587
X208.551Y-121.857
X208.551Y-123.127
X208.551Y-124.397
X208.551Y-125.667
X208.551Y-126.937
X208.551Y-128.207
X215.551Y-97.827
X215.551Y-99.097
X215.551Y-101.637
X215.551Y-102.907
X216.551Y-96.557
X216.551Y-100.367
X216.551Y-104.177
T3
X112.93Y-76.25
X112.96Y-63.65
X118.01Y-76.25
X118.04Y-63.65
X123.09Y-76.25
X123.12Y-63.65
X128.17Y-76.25
X128.2Y-63.65
T4
X59.25Y-91.63
X59.25Y-133.13
X89.101Y-91.627
X89.101Y-133.127
X118.951Y-91.627
X118.951Y-133.127
X148.851Y-91.627
X148.851Y-133.127
X178.651Y-91.627
X178.651Y-133.127
X208.551Y-91.627
X208.551Y-133.127
T5
X66.75Y-93.89
X66.75Y-106.85
X96.601Y-93.887
X96.601Y-106.847
X126.451Y-93.887
X126.451Y-106.847
X156.351Y-93.887
X156.351Y-106.847
X186.151Y-93.887
X186.151Y-106.847
X216.051Y-93.887
X216.051Y-106.847
T6
X26.25Y-31.3
X26.35Y-151.8
X123.75Y-31.3
X123.75Y-151.5
X223.75Y-31.3
X223.75Y-151.5
M30
