G04 #@! TF.GenerationSoftware,KiCad,Pcbnew,8.0.8*
G04 #@! TF.CreationDate,2025-03-22T18:56:51+00:00*
G04 #@! TF.ProjectId,HDD Backplane,48444420-4261-4636-9b70-6c616e652e6b,rev?*
G04 #@! TF.SameCoordinates,Original*
G04 #@! TF.FileFunction,Soldermask,Top*
G04 #@! TF.FilePolarity,Negative*
%FSLAX46Y46*%
G04 Gerber Fmt 4.6, Leading zero omitted, Abs format (unit mm)*
G04 Created by KiCad (PCBNEW 8.0.8) date 2025-03-22 18:56:51*
%MOMM*%
%LPD*%
G01*
G04 APERTURE LIST*
G04 Aperture macros list*
%AMRoundRect*
0 Rectangle with rounded corners*
0 $1 Rounding radius*
0 $2 $3 $4 $5 $6 $7 $8 $9 X,Y pos of 4 corners*
0 Add a 4 corners polygon primitive as box body*
4,1,4,$2,$3,$4,$5,$6,$7,$8,$9,$2,$3,0*
0 Add four circle primitives for the rounded corners*
1,1,$1+$1,$2,$3*
1,1,$1+$1,$4,$5*
1,1,$1+$1,$6,$7*
1,1,$1+$1,$8,$9*
0 Add four rect primitives between the rounded corners*
20,1,$1+$1,$2,$3,$4,$5,0*
20,1,$1+$1,$4,$5,$6,$7,0*
20,1,$1+$1,$6,$7,$8,$9,0*
20,1,$1+$1,$8,$9,$2,$3,0*%
G04 Aperture macros list end*
%ADD10C,5.600000*%
%ADD11C,1.800000*%
%ADD12O,1.400000X1.000000*%
%ADD13RoundRect,0.250000X-0.450000X0.325000X-0.450000X-0.325000X0.450000X-0.325000X0.450000X0.325000X0*%
%ADD14C,2.200000*%
%ADD15C,2.540000*%
G04 APERTURE END LIST*
D10*
X123750000Y-151500000D03*
X123750000Y-31300000D03*
D11*
X208551141Y-91627224D03*
X208551141Y-133127224D03*
D12*
X208551141Y-96547224D03*
X208551141Y-97817224D03*
X208551141Y-99087224D03*
X208551141Y-100357224D03*
X208551141Y-101627224D03*
X208551141Y-102897224D03*
X208551141Y-104167224D03*
X208551141Y-110427224D03*
X208551141Y-111697224D03*
X208551141Y-112967224D03*
X208551141Y-114237224D03*
X208551141Y-115507224D03*
X208551141Y-116777224D03*
X208551141Y-118047224D03*
X208551141Y-119317224D03*
X208551141Y-120587224D03*
X208551141Y-121857224D03*
X208551141Y-123127224D03*
X208551141Y-124397224D03*
X208551141Y-125667224D03*
X208551141Y-126937224D03*
X208551141Y-128207224D03*
D13*
X196501141Y-121092224D03*
X196501141Y-123142224D03*
D14*
X216051141Y-106847224D03*
X216051141Y-93887224D03*
D12*
X216551141Y-96557224D03*
X215551141Y-97827224D03*
X215551141Y-99097224D03*
X216551141Y-100367224D03*
X215551141Y-101637224D03*
X215551141Y-102907224D03*
X216551141Y-104177224D03*
D11*
X178651141Y-91627224D03*
X178651141Y-133127224D03*
D12*
X178651141Y-96547224D03*
X178651141Y-97817224D03*
X178651141Y-99087224D03*
X178651141Y-100357224D03*
X178651141Y-101627224D03*
X178651141Y-102897224D03*
X178651141Y-104167224D03*
X178651141Y-110427224D03*
X178651141Y-111697224D03*
X178651141Y-112967224D03*
X178651141Y-114237224D03*
X178651141Y-115507224D03*
X178651141Y-116777224D03*
X178651141Y-118047224D03*
X178651141Y-119317224D03*
X178651141Y-120587224D03*
X178651141Y-121857224D03*
X178651141Y-123127224D03*
X178651141Y-124397224D03*
X178651141Y-125667224D03*
X178651141Y-126937224D03*
X178651141Y-128207224D03*
D13*
X166601141Y-121092224D03*
X166601141Y-123142224D03*
D14*
X186151141Y-106847224D03*
X186151141Y-93887224D03*
D12*
X186651141Y-96557224D03*
X185651141Y-97827224D03*
X185651141Y-99097224D03*
X186651141Y-100367224D03*
X185651141Y-101637224D03*
X185651141Y-102907224D03*
X186651141Y-104177224D03*
D11*
X148851141Y-91627224D03*
X148851141Y-133127224D03*
D12*
X148851141Y-96547224D03*
X148851141Y-97817224D03*
X148851141Y-99087224D03*
X148851141Y-100357224D03*
X148851141Y-101627224D03*
X148851141Y-102897224D03*
X148851141Y-104167224D03*
X148851141Y-110427224D03*
X148851141Y-111697224D03*
X148851141Y-112967224D03*
X148851141Y-114237224D03*
X148851141Y-115507224D03*
X148851141Y-116777224D03*
X148851141Y-118047224D03*
X148851141Y-119317224D03*
X148851141Y-120587224D03*
X148851141Y-121857224D03*
X148851141Y-123127224D03*
X148851141Y-124397224D03*
X148851141Y-125667224D03*
X148851141Y-126937224D03*
X148851141Y-128207224D03*
D13*
X136801141Y-121092224D03*
X136801141Y-123142224D03*
D14*
X156351141Y-106847224D03*
X156351141Y-93887224D03*
D12*
X156851141Y-96557224D03*
X155851141Y-97827224D03*
X155851141Y-99097224D03*
X156851141Y-100367224D03*
X155851141Y-101637224D03*
X155851141Y-102907224D03*
X156851141Y-104177224D03*
D11*
X118951141Y-91627224D03*
X118951141Y-133127224D03*
D12*
X118951141Y-96547224D03*
X118951141Y-97817224D03*
X118951141Y-99087224D03*
X118951141Y-100357224D03*
X118951141Y-101627224D03*
X118951141Y-102897224D03*
X118951141Y-104167224D03*
X118951141Y-110427224D03*
X118951141Y-111697224D03*
X118951141Y-112967224D03*
X118951141Y-114237224D03*
X118951141Y-115507224D03*
X118951141Y-116777224D03*
X118951141Y-118047224D03*
X118951141Y-119317224D03*
X118951141Y-120587224D03*
X118951141Y-121857224D03*
X118951141Y-123127224D03*
X118951141Y-124397224D03*
X118951141Y-125667224D03*
X118951141Y-126937224D03*
X118951141Y-128207224D03*
D13*
X106901141Y-121092224D03*
X106901141Y-123142224D03*
D14*
X126451141Y-106847224D03*
X126451141Y-93887224D03*
D12*
X126951141Y-96557224D03*
X125951141Y-97827224D03*
X125951141Y-99097224D03*
X126951141Y-100367224D03*
X125951141Y-101637224D03*
X125951141Y-102907224D03*
X126951141Y-104177224D03*
D11*
X89101141Y-91627224D03*
X89101141Y-133127224D03*
D12*
X89101141Y-96547224D03*
X89101141Y-97817224D03*
X89101141Y-99087224D03*
X89101141Y-100357224D03*
X89101141Y-101627224D03*
X89101141Y-102897224D03*
X89101141Y-104167224D03*
X89101141Y-110427224D03*
X89101141Y-111697224D03*
X89101141Y-112967224D03*
X89101141Y-114237224D03*
X89101141Y-115507224D03*
X89101141Y-116777224D03*
X89101141Y-118047224D03*
X89101141Y-119317224D03*
X89101141Y-120587224D03*
X89101141Y-121857224D03*
X89101141Y-123127224D03*
X89101141Y-124397224D03*
X89101141Y-125667224D03*
X89101141Y-126937224D03*
X89101141Y-128207224D03*
D14*
X96601141Y-106847224D03*
X96601141Y-93887224D03*
D12*
X97101141Y-96557224D03*
X96101141Y-97827224D03*
X96101141Y-99097224D03*
X97101141Y-100367224D03*
X96101141Y-101637224D03*
X96101141Y-102907224D03*
X97101141Y-104177224D03*
D13*
X77051141Y-121092224D03*
X77051141Y-123142224D03*
D10*
X223750000Y-151500000D03*
D13*
X47200000Y-123145000D03*
X47200000Y-121095000D03*
D10*
X26250000Y-31300000D03*
X26350000Y-151800000D03*
D12*
X67250000Y-104180000D03*
X66250000Y-102910000D03*
X66250000Y-101640000D03*
X67250000Y-100370000D03*
X66250000Y-99100000D03*
X66250000Y-97830000D03*
X67250000Y-96560000D03*
D14*
X66750000Y-93890000D03*
X66750000Y-106850000D03*
D10*
X223750000Y-31300000D03*
D15*
X128200000Y-63650000D03*
X123120000Y-63650000D03*
X118040000Y-63650000D03*
X112960000Y-63650000D03*
X128170000Y-76250000D03*
X123090000Y-76250000D03*
X118010000Y-76250000D03*
X112930000Y-76250000D03*
D12*
X59250000Y-128210000D03*
X59250000Y-126940000D03*
X59250000Y-125670000D03*
X59250000Y-124400000D03*
X59250000Y-123130000D03*
X59250000Y-121860000D03*
X59250000Y-120590000D03*
X59250000Y-119320000D03*
X59250000Y-118050000D03*
X59250000Y-116780000D03*
X59250000Y-115510000D03*
X59250000Y-114240000D03*
X59250000Y-112970000D03*
X59250000Y-111700000D03*
X59250000Y-110430000D03*
X59250000Y-104170000D03*
X59250000Y-102900000D03*
X59250000Y-101630000D03*
X59250000Y-100360000D03*
X59250000Y-99090000D03*
X59250000Y-97820000D03*
X59250000Y-96550000D03*
D11*
X59250000Y-133130000D03*
X59250000Y-91630000D03*
M02*
