G04 #@! TF.GenerationSoftware,KiCad,Pcbnew,8.0.8*
G04 #@! TF.CreationDate,2025-03-22T18:56:51+00:00*
G04 #@! TF.ProjectId,HDD Backplane,48444420-4261-4636-9b70-6c616e652e6b,rev?*
G04 #@! TF.SameCoordinates,Original*
G04 #@! TF.FileFunction,Legend,Top*
G04 #@! TF.FilePolarity,Positive*
%FSLAX46Y46*%
G04 Gerber Fmt 4.6, Leading zero omitted, Abs format (unit mm)*
G04 Created by KiCad (PCBNEW 8.0.8) date 2025-03-22 18:56:51*
%MOMM*%
%LPD*%
G01*
G04 APERTURE LIST*
G04 Aperture macros list*
%AMRoundRect*
0 Rectangle with rounded corners*
0 $1 Rounding radius*
0 $2 $3 $4 $5 $6 $7 $8 $9 X,Y pos of 4 corners*
0 Add a 4 corners polygon primitive as box body*
4,1,4,$2,$3,$4,$5,$6,$7,$8,$9,$2,$3,0*
0 Add four circle primitives for the rounded corners*
1,1,$1+$1,$2,$3*
1,1,$1+$1,$4,$5*
1,1,$1+$1,$6,$7*
1,1,$1+$1,$8,$9*
0 Add four rect primitives between the rounded corners*
20,1,$1+$1,$2,$3,$4,$5,0*
20,1,$1+$1,$4,$5,$6,$7,0*
20,1,$1+$1,$6,$7,$8,$9,0*
20,1,$1+$1,$8,$9,$2,$3,0*%
G04 Aperture macros list end*
%ADD10C,0.100000*%
%ADD11C,0.500000*%
%ADD12C,0.200000*%
%ADD13C,0.150000*%
%ADD14C,0.000000*%
%ADD15C,0.120000*%
%ADD16C,0.127000*%
%ADD17C,5.600000*%
%ADD18C,1.800000*%
%ADD19O,1.400000X1.000000*%
%ADD20RoundRect,0.250000X-0.450000X0.325000X-0.450000X-0.325000X0.450000X-0.325000X0.450000X0.325000X0*%
%ADD21C,2.200000*%
%ADD22C,2.540000*%
G04 APERTURE END LIST*
D10*
X29739598Y-32922419D02*
X29739598Y-33636704D01*
X29739598Y-33636704D02*
X29691979Y-33779561D01*
X29691979Y-33779561D02*
X29596741Y-33874800D01*
X29596741Y-33874800D02*
X29453884Y-33922419D01*
X29453884Y-33922419D02*
X29358646Y-33922419D01*
X30691979Y-33922419D02*
X30215789Y-33922419D01*
X30215789Y-33922419D02*
X30215789Y-32922419D01*
X31596741Y-33827180D02*
X31549122Y-33874800D01*
X31549122Y-33874800D02*
X31406265Y-33922419D01*
X31406265Y-33922419D02*
X31311027Y-33922419D01*
X31311027Y-33922419D02*
X31168170Y-33874800D01*
X31168170Y-33874800D02*
X31072932Y-33779561D01*
X31072932Y-33779561D02*
X31025313Y-33684323D01*
X31025313Y-33684323D02*
X30977694Y-33493847D01*
X30977694Y-33493847D02*
X30977694Y-33350990D01*
X30977694Y-33350990D02*
X31025313Y-33160514D01*
X31025313Y-33160514D02*
X31072932Y-33065276D01*
X31072932Y-33065276D02*
X31168170Y-32970038D01*
X31168170Y-32970038D02*
X31311027Y-32922419D01*
X31311027Y-32922419D02*
X31406265Y-32922419D01*
X31406265Y-32922419D02*
X31549122Y-32970038D01*
X31549122Y-32970038D02*
X31596741Y-33017657D01*
X32311027Y-32922419D02*
X32311027Y-33636704D01*
X32311027Y-33636704D02*
X32263408Y-33779561D01*
X32263408Y-33779561D02*
X32168170Y-33874800D01*
X32168170Y-33874800D02*
X32025313Y-33922419D01*
X32025313Y-33922419D02*
X31930075Y-33922419D01*
X33263408Y-33922419D02*
X32787218Y-33922419D01*
X32787218Y-33922419D02*
X32787218Y-32922419D01*
X34168170Y-33827180D02*
X34120551Y-33874800D01*
X34120551Y-33874800D02*
X33977694Y-33922419D01*
X33977694Y-33922419D02*
X33882456Y-33922419D01*
X33882456Y-33922419D02*
X33739599Y-33874800D01*
X33739599Y-33874800D02*
X33644361Y-33779561D01*
X33644361Y-33779561D02*
X33596742Y-33684323D01*
X33596742Y-33684323D02*
X33549123Y-33493847D01*
X33549123Y-33493847D02*
X33549123Y-33350990D01*
X33549123Y-33350990D02*
X33596742Y-33160514D01*
X33596742Y-33160514D02*
X33644361Y-33065276D01*
X33644361Y-33065276D02*
X33739599Y-32970038D01*
X33739599Y-32970038D02*
X33882456Y-32922419D01*
X33882456Y-32922419D02*
X33977694Y-32922419D01*
X33977694Y-32922419D02*
X34120551Y-32970038D01*
X34120551Y-32970038D02*
X34168170Y-33017657D01*
X34882456Y-32922419D02*
X34882456Y-33636704D01*
X34882456Y-33636704D02*
X34834837Y-33779561D01*
X34834837Y-33779561D02*
X34739599Y-33874800D01*
X34739599Y-33874800D02*
X34596742Y-33922419D01*
X34596742Y-33922419D02*
X34501504Y-33922419D01*
X35834837Y-33922419D02*
X35358647Y-33922419D01*
X35358647Y-33922419D02*
X35358647Y-32922419D01*
X36739599Y-33827180D02*
X36691980Y-33874800D01*
X36691980Y-33874800D02*
X36549123Y-33922419D01*
X36549123Y-33922419D02*
X36453885Y-33922419D01*
X36453885Y-33922419D02*
X36311028Y-33874800D01*
X36311028Y-33874800D02*
X36215790Y-33779561D01*
X36215790Y-33779561D02*
X36168171Y-33684323D01*
X36168171Y-33684323D02*
X36120552Y-33493847D01*
X36120552Y-33493847D02*
X36120552Y-33350990D01*
X36120552Y-33350990D02*
X36168171Y-33160514D01*
X36168171Y-33160514D02*
X36215790Y-33065276D01*
X36215790Y-33065276D02*
X36311028Y-32970038D01*
X36311028Y-32970038D02*
X36453885Y-32922419D01*
X36453885Y-32922419D02*
X36549123Y-32922419D01*
X36549123Y-32922419D02*
X36691980Y-32970038D01*
X36691980Y-32970038D02*
X36739599Y-33017657D01*
X37453885Y-32922419D02*
X37453885Y-33636704D01*
X37453885Y-33636704D02*
X37406266Y-33779561D01*
X37406266Y-33779561D02*
X37311028Y-33874800D01*
X37311028Y-33874800D02*
X37168171Y-33922419D01*
X37168171Y-33922419D02*
X37072933Y-33922419D01*
X38406266Y-33922419D02*
X37930076Y-33922419D01*
X37930076Y-33922419D02*
X37930076Y-32922419D01*
X39311028Y-33827180D02*
X39263409Y-33874800D01*
X39263409Y-33874800D02*
X39120552Y-33922419D01*
X39120552Y-33922419D02*
X39025314Y-33922419D01*
X39025314Y-33922419D02*
X38882457Y-33874800D01*
X38882457Y-33874800D02*
X38787219Y-33779561D01*
X38787219Y-33779561D02*
X38739600Y-33684323D01*
X38739600Y-33684323D02*
X38691981Y-33493847D01*
X38691981Y-33493847D02*
X38691981Y-33350990D01*
X38691981Y-33350990D02*
X38739600Y-33160514D01*
X38739600Y-33160514D02*
X38787219Y-33065276D01*
X38787219Y-33065276D02*
X38882457Y-32970038D01*
X38882457Y-32970038D02*
X39025314Y-32922419D01*
X39025314Y-32922419D02*
X39120552Y-32922419D01*
X39120552Y-32922419D02*
X39263409Y-32970038D01*
X39263409Y-32970038D02*
X39311028Y-33017657D01*
D11*
X29400000Y-34600000D02*
X29400000Y-148850000D01*
X29400000Y-34600000D02*
X220650000Y-34600000D01*
D10*
G36*
X32756830Y-50777573D02*
G01*
X32756830Y-49745891D01*
X32967856Y-49745891D01*
X32967856Y-50154997D01*
X33204283Y-50154997D01*
X33204283Y-49745891D01*
X33415308Y-49745891D01*
X33415308Y-50777573D01*
X33204283Y-50777573D01*
X33204283Y-50339889D01*
X32967856Y-50339889D01*
X32967856Y-50777573D01*
X32756830Y-50777573D01*
G37*
G36*
X34312168Y-50777573D02*
G01*
X34096990Y-50777573D01*
X34047653Y-50543099D01*
X33802922Y-50543099D01*
X33753585Y-50777573D01*
X33538407Y-50777573D01*
X33637607Y-50371152D01*
X33838093Y-50371152D01*
X34011017Y-50371152D01*
X33961924Y-50124711D01*
X33952429Y-50074955D01*
X33942718Y-50025521D01*
X33941408Y-50018954D01*
X33931627Y-49969518D01*
X33925288Y-49936889D01*
X33916337Y-49985139D01*
X33910389Y-50018221D01*
X33901434Y-50067087D01*
X33891512Y-50116596D01*
X33890117Y-50123246D01*
X33838093Y-50371152D01*
X33637607Y-50371152D01*
X33790221Y-49745891D01*
X34057423Y-49745891D01*
X34312168Y-50777573D01*
G37*
G36*
X34817491Y-49748272D02*
G01*
X34866783Y-49755416D01*
X34917820Y-49769146D01*
X34954283Y-49783993D01*
X35000975Y-49810826D01*
X35040607Y-49844004D01*
X35073179Y-49883526D01*
X35078847Y-49892192D01*
X35102288Y-49938508D01*
X35117048Y-49989832D01*
X35122908Y-50040307D01*
X35123299Y-50058033D01*
X35119454Y-50112445D01*
X35107920Y-50163572D01*
X35088697Y-50211414D01*
X35074694Y-50236575D01*
X35044650Y-50277374D01*
X35009195Y-50311296D01*
X34968331Y-50338339D01*
X34943292Y-50350392D01*
X35137221Y-50777573D01*
X34908121Y-50777573D01*
X34742036Y-50384097D01*
X34643606Y-50384097D01*
X34643606Y-50777573D01*
X34435267Y-50777573D01*
X34435267Y-50199205D01*
X34643606Y-50199205D01*
X34764506Y-50199205D01*
X34816419Y-50193522D01*
X34863295Y-50172839D01*
X34873438Y-50164767D01*
X34902564Y-50123185D01*
X34912235Y-50071668D01*
X34912273Y-50067803D01*
X34904840Y-50016518D01*
X34880378Y-49973918D01*
X34873438Y-49966930D01*
X34830283Y-49940984D01*
X34781595Y-49931347D01*
X34764506Y-49930783D01*
X34643606Y-49930783D01*
X34643606Y-50199205D01*
X34435267Y-50199205D01*
X34435267Y-49745891D01*
X34764506Y-49745891D01*
X34817491Y-49748272D01*
G37*
G36*
X35655489Y-49748455D02*
G01*
X35703803Y-49756149D01*
X35754033Y-49770935D01*
X35790082Y-49786924D01*
X35832068Y-49812632D01*
X35872149Y-49847360D01*
X35905313Y-49888576D01*
X35913913Y-49902206D01*
X35937354Y-49951036D01*
X35951029Y-49999387D01*
X35957670Y-50051912D01*
X35958365Y-50076596D01*
X35958365Y-50445402D01*
X35954849Y-50499150D01*
X35944300Y-50549112D01*
X35926719Y-50595287D01*
X35913913Y-50619303D01*
X35882824Y-50662923D01*
X35844819Y-50700056D01*
X35804700Y-50727928D01*
X35790082Y-50736051D01*
X35743248Y-50756123D01*
X35692048Y-50769625D01*
X35642871Y-50776113D01*
X35603724Y-50777573D01*
X35270333Y-50777573D01*
X35270333Y-50592681D01*
X35481359Y-50592681D01*
X35603724Y-50592681D01*
X35654635Y-50584967D01*
X35699325Y-50559583D01*
X35707039Y-50552381D01*
X35735965Y-50509555D01*
X35746985Y-50460481D01*
X35747339Y-50448822D01*
X35747339Y-50073176D01*
X35739626Y-50022359D01*
X35714241Y-49977977D01*
X35707039Y-49970350D01*
X35664388Y-49941950D01*
X35615382Y-49931130D01*
X35603724Y-49930783D01*
X35481359Y-49930783D01*
X35481359Y-50592681D01*
X35270333Y-50592681D01*
X35270333Y-49745891D01*
X35603724Y-49745891D01*
X35655489Y-49748455D01*
G37*
G36*
X36130556Y-50777573D02*
G01*
X36035057Y-49745891D01*
X36202364Y-49745891D01*
X36254387Y-50436609D01*
X36257445Y-50485907D01*
X36257807Y-50492541D01*
X36260714Y-50543630D01*
X36261959Y-50567768D01*
X36263942Y-50617471D01*
X36264157Y-50637621D01*
X36268828Y-50586697D01*
X36270507Y-50567768D01*
X36275211Y-50517739D01*
X36277590Y-50492541D01*
X36282034Y-50443191D01*
X36282475Y-50436609D01*
X36364052Y-49745891D01*
X36524520Y-49745891D01*
X36603410Y-50436609D01*
X36608882Y-50485907D01*
X36609516Y-50492541D01*
X36614535Y-50541248D01*
X36617332Y-50567768D01*
X36622569Y-50617471D01*
X36624415Y-50637621D01*
X36626476Y-50587063D01*
X36627102Y-50568256D01*
X36629341Y-50518869D01*
X36630766Y-50494007D01*
X36633779Y-50445069D01*
X36634185Y-50438563D01*
X36682057Y-49745891D01*
X36850828Y-49745891D01*
X36748246Y-50777573D01*
X36528672Y-50777573D01*
X36459796Y-50098089D01*
X36455932Y-50047438D01*
X36454911Y-50035807D01*
X36450827Y-49986233D01*
X36448560Y-49955207D01*
X36444929Y-49904276D01*
X36442943Y-49880957D01*
X36440235Y-49929905D01*
X36438546Y-49955207D01*
X36435093Y-50006383D01*
X36432929Y-50035807D01*
X36428899Y-50085312D01*
X36427556Y-50098089D01*
X36351596Y-50777573D01*
X36130556Y-50777573D01*
G37*
G36*
X37669042Y-50777573D02*
G01*
X37453864Y-50777573D01*
X37404527Y-50543099D01*
X37159796Y-50543099D01*
X37110459Y-50777573D01*
X36895281Y-50777573D01*
X36994481Y-50371152D01*
X37194967Y-50371152D01*
X37367890Y-50371152D01*
X37318798Y-50124711D01*
X37309302Y-50074955D01*
X37299592Y-50025521D01*
X37298281Y-50018954D01*
X37288501Y-49969518D01*
X37282161Y-49936889D01*
X37273210Y-49985139D01*
X37267262Y-50018221D01*
X37258307Y-50067087D01*
X37248386Y-50116596D01*
X37246990Y-50123246D01*
X37194967Y-50371152D01*
X36994481Y-50371152D01*
X37147095Y-49745891D01*
X37414297Y-49745891D01*
X37669042Y-50777573D01*
G37*
G36*
X38174365Y-49748272D02*
G01*
X38223656Y-49755416D01*
X38274693Y-49769146D01*
X38311156Y-49783993D01*
X38357849Y-49810826D01*
X38397481Y-49844004D01*
X38430053Y-49883526D01*
X38435720Y-49892192D01*
X38459162Y-49938508D01*
X38473921Y-49989832D01*
X38479782Y-50040307D01*
X38480172Y-50058033D01*
X38476328Y-50112445D01*
X38464794Y-50163572D01*
X38445570Y-50211414D01*
X38431568Y-50236575D01*
X38401523Y-50277374D01*
X38366069Y-50311296D01*
X38325205Y-50338339D01*
X38300165Y-50350392D01*
X38494094Y-50777573D01*
X38264994Y-50777573D01*
X38098909Y-50384097D01*
X38000479Y-50384097D01*
X38000479Y-50777573D01*
X37792140Y-50777573D01*
X37792140Y-50199205D01*
X38000479Y-50199205D01*
X38121380Y-50199205D01*
X38173292Y-50193522D01*
X38220168Y-50172839D01*
X38230312Y-50164767D01*
X38259438Y-50123185D01*
X38269109Y-50071668D01*
X38269147Y-50067803D01*
X38261713Y-50016518D01*
X38237252Y-49973918D01*
X38230312Y-49966930D01*
X38187157Y-49940984D01*
X38138469Y-49931347D01*
X38121380Y-49930783D01*
X38000479Y-49930783D01*
X38000479Y-50199205D01*
X37792140Y-50199205D01*
X37792140Y-49745891D01*
X38121380Y-49745891D01*
X38174365Y-49748272D01*
G37*
G36*
X38651142Y-50777573D02*
G01*
X38651142Y-49745891D01*
X39284220Y-49745891D01*
X39284220Y-49930783D01*
X38858016Y-49930783D01*
X38858016Y-50152311D01*
X39234883Y-50152311D01*
X39234883Y-50337203D01*
X38858016Y-50337203D01*
X38858016Y-50592681D01*
X39284220Y-50592681D01*
X39284220Y-50777573D01*
X38651142Y-50777573D01*
G37*
G36*
X40690173Y-49747936D02*
G01*
X40742187Y-49755128D01*
X40790105Y-49767497D01*
X40819775Y-49778619D01*
X40864392Y-49801603D01*
X40905812Y-49832725D01*
X40939209Y-49869966D01*
X40963683Y-49912748D01*
X40977998Y-49960494D01*
X40982196Y-50008208D01*
X40977521Y-50059456D01*
X40961580Y-50109382D01*
X40934325Y-50152555D01*
X40898233Y-50186839D01*
X40851224Y-50211666D01*
X40810738Y-50221676D01*
X40810738Y-50224607D01*
X40858603Y-50235179D01*
X40904180Y-50259060D01*
X40912587Y-50265395D01*
X40947649Y-50299649D01*
X40975044Y-50341290D01*
X40981463Y-50354544D01*
X40997435Y-50400736D01*
X41005265Y-50451200D01*
X41006132Y-50475933D01*
X41002616Y-50524870D01*
X40990461Y-50575121D01*
X40969624Y-50621031D01*
X40961680Y-50633958D01*
X40930615Y-50673461D01*
X40892681Y-50707097D01*
X40847878Y-50734865D01*
X40838093Y-50739715D01*
X40791375Y-50758015D01*
X40740523Y-50770326D01*
X40691850Y-50776242D01*
X40653201Y-50777573D01*
X40309796Y-50777573D01*
X40309796Y-50605626D01*
X40513738Y-50605626D01*
X40646118Y-50605626D01*
X40697203Y-50599498D01*
X40744025Y-50577202D01*
X40754318Y-50568501D01*
X40782718Y-50527417D01*
X40793537Y-50477742D01*
X40793885Y-50465674D01*
X40787355Y-50416887D01*
X40763591Y-50372015D01*
X40754318Y-50362115D01*
X40710959Y-50334942D01*
X40662875Y-50324849D01*
X40646118Y-50324258D01*
X40513738Y-50324258D01*
X40513738Y-50605626D01*
X40309796Y-50605626D01*
X40309796Y-50152311D01*
X40513738Y-50152311D01*
X40637569Y-50152311D01*
X40686710Y-50146233D01*
X40732554Y-50122513D01*
X40734778Y-50120559D01*
X40763217Y-50077531D01*
X40769949Y-50034342D01*
X40761156Y-49985127D01*
X40734778Y-49948368D01*
X40689826Y-49924546D01*
X40641421Y-49917867D01*
X40637569Y-49917838D01*
X40513738Y-49917838D01*
X40513738Y-50152311D01*
X40309796Y-50152311D01*
X40309796Y-49745891D01*
X40640500Y-49745891D01*
X40690173Y-49747936D01*
G37*
G36*
X41372740Y-50777573D02*
G01*
X41372740Y-50413406D01*
X41077207Y-49745891D01*
X41298246Y-49745891D01*
X41427695Y-50059743D01*
X41446013Y-50108347D01*
X41460968Y-50156576D01*
X41461889Y-50159882D01*
X41474468Y-50207632D01*
X41482405Y-50245367D01*
X41493740Y-50196633D01*
X41502922Y-50159882D01*
X41516535Y-50111482D01*
X41533304Y-50062695D01*
X41534429Y-50059743D01*
X41659726Y-49745891D01*
X41879300Y-49745891D01*
X41583766Y-50413406D01*
X41583766Y-50777573D01*
X41372740Y-50777573D01*
G37*
G36*
X43207829Y-49747936D02*
G01*
X43259842Y-49755128D01*
X43307760Y-49767497D01*
X43337430Y-49778619D01*
X43382047Y-49801603D01*
X43423468Y-49832725D01*
X43456865Y-49869966D01*
X43481339Y-49912748D01*
X43495653Y-49960494D01*
X43499851Y-50008208D01*
X43495176Y-50059456D01*
X43479235Y-50109382D01*
X43451980Y-50152555D01*
X43415888Y-50186839D01*
X43368879Y-50211666D01*
X43328393Y-50221676D01*
X43328393Y-50224607D01*
X43376258Y-50235179D01*
X43421835Y-50259060D01*
X43430242Y-50265395D01*
X43465304Y-50299649D01*
X43492700Y-50341290D01*
X43499119Y-50354544D01*
X43515091Y-50400736D01*
X43522920Y-50451200D01*
X43523787Y-50475933D01*
X43520271Y-50524870D01*
X43508116Y-50575121D01*
X43487279Y-50621031D01*
X43479335Y-50633958D01*
X43448270Y-50673461D01*
X43410336Y-50707097D01*
X43365533Y-50734865D01*
X43355748Y-50739715D01*
X43309030Y-50758015D01*
X43258178Y-50770326D01*
X43209505Y-50776242D01*
X43170856Y-50777573D01*
X42827451Y-50777573D01*
X42827451Y-50605626D01*
X43031394Y-50605626D01*
X43163773Y-50605626D01*
X43214858Y-50599498D01*
X43261680Y-50577202D01*
X43271973Y-50568501D01*
X43300373Y-50527417D01*
X43311192Y-50477742D01*
X43311540Y-50465674D01*
X43305010Y-50416887D01*
X43281246Y-50372015D01*
X43271973Y-50362115D01*
X43228614Y-50334942D01*
X43180531Y-50324849D01*
X43163773Y-50324258D01*
X43031394Y-50324258D01*
X43031394Y-50605626D01*
X42827451Y-50605626D01*
X42827451Y-50152311D01*
X43031394Y-50152311D01*
X43155225Y-50152311D01*
X43204365Y-50146233D01*
X43250209Y-50122513D01*
X43252433Y-50120559D01*
X43280872Y-50077531D01*
X43287604Y-50034342D01*
X43278812Y-49985127D01*
X43252433Y-49948368D01*
X43207482Y-49924546D01*
X43159076Y-49917867D01*
X43155225Y-49917838D01*
X43031394Y-49917838D01*
X43031394Y-50152311D01*
X42827451Y-50152311D01*
X42827451Y-49745891D01*
X43158156Y-49745891D01*
X43207829Y-49747936D01*
G37*
G36*
X43686453Y-50777573D02*
G01*
X43686453Y-49745891D01*
X44319530Y-49745891D01*
X44319530Y-49930783D01*
X43893327Y-49930783D01*
X43893327Y-50152311D01*
X44270193Y-50152311D01*
X44270193Y-50337203D01*
X43893327Y-50337203D01*
X43893327Y-50592681D01*
X44319530Y-50592681D01*
X44319530Y-50777573D01*
X43686453Y-50777573D01*
G37*
G36*
X44497583Y-50777573D02*
G01*
X44497583Y-49745891D01*
X44743780Y-49745891D01*
X45009516Y-50546519D01*
X45005603Y-50497485D01*
X45001466Y-50446428D01*
X44999747Y-50425374D01*
X44995808Y-50373900D01*
X44992419Y-50322426D01*
X44990466Y-50288110D01*
X44988252Y-50235574D01*
X44987130Y-50186661D01*
X44987046Y-50171118D01*
X44987046Y-49745891D01*
X45172671Y-49745891D01*
X45172671Y-50777573D01*
X44926474Y-50777573D01*
X44663424Y-49985981D01*
X44667760Y-50035074D01*
X44671453Y-50084843D01*
X44671973Y-50092471D01*
X44675226Y-50142762D01*
X44678236Y-50193617D01*
X44679544Y-50217279D01*
X44681916Y-50266141D01*
X44683151Y-50316709D01*
X44683208Y-50329143D01*
X44683208Y-50777573D01*
X44497583Y-50777573D01*
G37*
G36*
X46182859Y-50777573D02*
G01*
X46182859Y-49745891D01*
X46393885Y-49745891D01*
X46393885Y-50152311D01*
X46492559Y-50152311D01*
X46664018Y-49745891D01*
X46891896Y-49745891D01*
X46678184Y-50236330D01*
X46900445Y-50777573D01*
X46669635Y-50777573D01*
X46493780Y-50337203D01*
X46393885Y-50337203D01*
X46393885Y-50777573D01*
X46182859Y-50777573D01*
G37*
G36*
X47247269Y-50777573D02*
G01*
X47247269Y-50413406D01*
X46951736Y-49745891D01*
X47172775Y-49745891D01*
X47302224Y-50059743D01*
X47320542Y-50108347D01*
X47335497Y-50156576D01*
X47336418Y-50159882D01*
X47348997Y-50207632D01*
X47356934Y-50245367D01*
X47368269Y-50196633D01*
X47377451Y-50159882D01*
X47391064Y-50111482D01*
X47407833Y-50062695D01*
X47408958Y-50059743D01*
X47534255Y-49745891D01*
X47753829Y-49745891D01*
X47458295Y-50413406D01*
X47458295Y-50777573D01*
X47247269Y-50777573D01*
G37*
G36*
X48243765Y-49748455D02*
G01*
X48292079Y-49756149D01*
X48342309Y-49770935D01*
X48378358Y-49786924D01*
X48420345Y-49812632D01*
X48460425Y-49847360D01*
X48493589Y-49888576D01*
X48502189Y-49902206D01*
X48525631Y-49951036D01*
X48539305Y-49999387D01*
X48545947Y-50051912D01*
X48546641Y-50076596D01*
X48546641Y-50445402D01*
X48543125Y-50499150D01*
X48532576Y-50549112D01*
X48514995Y-50595287D01*
X48502189Y-50619303D01*
X48471101Y-50662923D01*
X48433095Y-50700056D01*
X48392976Y-50727928D01*
X48378358Y-50736051D01*
X48331524Y-50756123D01*
X48280324Y-50769625D01*
X48231147Y-50776113D01*
X48192001Y-50777573D01*
X47858609Y-50777573D01*
X47858609Y-50592681D01*
X48069635Y-50592681D01*
X48192001Y-50592681D01*
X48242911Y-50584967D01*
X48287601Y-50559583D01*
X48295315Y-50552381D01*
X48324242Y-50509555D01*
X48335261Y-50460481D01*
X48335616Y-50448822D01*
X48335616Y-50073176D01*
X48327902Y-50022359D01*
X48302518Y-49977977D01*
X48295315Y-49970350D01*
X48252665Y-49941950D01*
X48203658Y-49931130D01*
X48192001Y-49930783D01*
X48069635Y-49930783D01*
X48069635Y-50592681D01*
X47858609Y-50592681D01*
X47858609Y-49745891D01*
X48192001Y-49745891D01*
X48243765Y-49748455D01*
G37*
G36*
X32742454Y-48987573D02*
G01*
X32742454Y-45892527D01*
X33375532Y-45892527D01*
X33375532Y-47119847D01*
X34084813Y-47119847D01*
X34084813Y-45892527D01*
X34717890Y-45892527D01*
X34717890Y-48987573D01*
X34084813Y-48987573D01*
X34084813Y-47674523D01*
X33375532Y-47674523D01*
X33375532Y-48987573D01*
X32742454Y-48987573D01*
G37*
G36*
X36403120Y-45900221D02*
G01*
X36548063Y-45923302D01*
X36698753Y-45967660D01*
X36806900Y-46015626D01*
X36932859Y-46092751D01*
X37053101Y-46196936D01*
X37152592Y-46320584D01*
X37178393Y-46361473D01*
X37248718Y-46507962D01*
X37289740Y-46653016D01*
X37309666Y-46810590D01*
X37311750Y-46884642D01*
X37311750Y-47991062D01*
X37301201Y-48152306D01*
X37269555Y-48302191D01*
X37216811Y-48440715D01*
X37178393Y-48512764D01*
X37085127Y-48643625D01*
X36971111Y-48755023D01*
X36850754Y-48838640D01*
X36806900Y-48863009D01*
X36666398Y-48923223D01*
X36512798Y-48963730D01*
X36365267Y-48983193D01*
X36247828Y-48987573D01*
X35247653Y-48987573D01*
X35247653Y-48432897D01*
X35880731Y-48432897D01*
X36247828Y-48432897D01*
X36400559Y-48409756D01*
X36534629Y-48333603D01*
X36557772Y-48311997D01*
X36644551Y-48183519D01*
X36677609Y-48036298D01*
X36678672Y-48001320D01*
X36678672Y-46874383D01*
X36655531Y-46721933D01*
X36579378Y-46588786D01*
X36557772Y-46565905D01*
X36429820Y-46480704D01*
X36282799Y-46448246D01*
X36247828Y-46447203D01*
X35880731Y-46447203D01*
X35880731Y-48432897D01*
X35247653Y-48432897D01*
X35247653Y-45892527D01*
X36247828Y-45892527D01*
X36403120Y-45900221D01*
G37*
G36*
X38920776Y-45900221D02*
G01*
X39065718Y-45923302D01*
X39216408Y-45967660D01*
X39324555Y-46015626D01*
X39450515Y-46092751D01*
X39570757Y-46196936D01*
X39670247Y-46320584D01*
X39696048Y-46361473D01*
X39766373Y-46507962D01*
X39807396Y-46653016D01*
X39827321Y-46810590D01*
X39829405Y-46884642D01*
X39829405Y-47991062D01*
X39818856Y-48152306D01*
X39787210Y-48302191D01*
X39734466Y-48440715D01*
X39696048Y-48512764D01*
X39602783Y-48643625D01*
X39488766Y-48755023D01*
X39368409Y-48838640D01*
X39324555Y-48863009D01*
X39184053Y-48923223D01*
X39030453Y-48963730D01*
X38882923Y-48983193D01*
X38765483Y-48987573D01*
X37765308Y-48987573D01*
X37765308Y-48432897D01*
X38398386Y-48432897D01*
X38765483Y-48432897D01*
X38918214Y-48409756D01*
X39052284Y-48333603D01*
X39075427Y-48311997D01*
X39162206Y-48183519D01*
X39195265Y-48036298D01*
X39196327Y-48001320D01*
X39196327Y-46874383D01*
X39173186Y-46721933D01*
X39097033Y-46588786D01*
X39075427Y-46565905D01*
X38947475Y-46480704D01*
X38800454Y-46448246D01*
X38765483Y-46447203D01*
X38398386Y-46447203D01*
X38398386Y-48432897D01*
X37765308Y-48432897D01*
X37765308Y-45892527D01*
X38765483Y-45892527D01*
X38920776Y-45900221D01*
G37*
G36*
X43954209Y-45898664D02*
G01*
X44110250Y-45920238D01*
X44254003Y-45957345D01*
X44343013Y-45990713D01*
X44476864Y-46059664D01*
X44601126Y-46153031D01*
X44701317Y-46264753D01*
X44774739Y-46393100D01*
X44817683Y-46536338D01*
X44830277Y-46679478D01*
X44816252Y-46833222D01*
X44768427Y-46983001D01*
X44686662Y-47112520D01*
X44578387Y-47215372D01*
X44437360Y-47289853D01*
X44315902Y-47319882D01*
X44315902Y-47328675D01*
X44459496Y-47360391D01*
X44596228Y-47432036D01*
X44621449Y-47451041D01*
X44726636Y-47553803D01*
X44808822Y-47678725D01*
X44828079Y-47718487D01*
X44875995Y-47857062D01*
X44899483Y-48008455D01*
X44902084Y-48082653D01*
X44891536Y-48229465D01*
X44855071Y-48380219D01*
X44792560Y-48517949D01*
X44768728Y-48556728D01*
X44675534Y-48675238D01*
X44561732Y-48776146D01*
X44427322Y-48859451D01*
X44397967Y-48874000D01*
X44257814Y-48928901D01*
X44105257Y-48965834D01*
X43959237Y-48983580D01*
X43843292Y-48987573D01*
X42813075Y-48987573D01*
X42813075Y-48471732D01*
X43424904Y-48471732D01*
X43822043Y-48471732D01*
X43975297Y-48453350D01*
X44115764Y-48386460D01*
X44146641Y-48360357D01*
X44231843Y-48237106D01*
X44264300Y-48088082D01*
X44265343Y-48051878D01*
X44245753Y-47905517D01*
X44174462Y-47770900D01*
X44146641Y-47741201D01*
X44016564Y-47659682D01*
X43872315Y-47629403D01*
X43822043Y-47627628D01*
X43424904Y-47627628D01*
X43424904Y-48471732D01*
X42813075Y-48471732D01*
X42813075Y-47111787D01*
X43424904Y-47111787D01*
X43796397Y-47111787D01*
X43943819Y-47093555D01*
X44081350Y-47022393D01*
X44088023Y-47016533D01*
X44173340Y-46887449D01*
X44193536Y-46757880D01*
X44167158Y-46610235D01*
X44088023Y-46499959D01*
X43953168Y-46428493D01*
X43807950Y-46408457D01*
X43796397Y-46408368D01*
X43424904Y-46408368D01*
X43424904Y-47111787D01*
X42813075Y-47111787D01*
X42813075Y-45892527D01*
X43805190Y-45892527D01*
X43954209Y-45898664D01*
G37*
G36*
X47479091Y-48987573D02*
G01*
X46833557Y-48987573D01*
X46685546Y-48284153D01*
X45951352Y-48284153D01*
X45803341Y-48987573D01*
X45157807Y-48987573D01*
X45455406Y-47768312D01*
X46056865Y-47768312D01*
X46575636Y-47768312D01*
X46428358Y-47028989D01*
X46399872Y-46879721D01*
X46370742Y-46731418D01*
X46366809Y-46711718D01*
X46337468Y-46563409D01*
X46318449Y-46465521D01*
X46291596Y-46610273D01*
X46273752Y-46709519D01*
X46246887Y-46856115D01*
X46217123Y-47004643D01*
X46212936Y-47024593D01*
X46056865Y-47768312D01*
X45455406Y-47768312D01*
X45913250Y-45892527D01*
X46714855Y-45892527D01*
X47479091Y-48987573D01*
G37*
G36*
X48869810Y-49034467D02*
G01*
X48720653Y-49027186D01*
X48564129Y-49001587D01*
X48419545Y-48957556D01*
X48329789Y-48917963D01*
X48194706Y-48835603D01*
X48079802Y-48735067D01*
X47985077Y-48616357D01*
X47968553Y-48590434D01*
X47900933Y-48451745D01*
X47858358Y-48299460D01*
X47841453Y-48150780D01*
X47840326Y-48098773D01*
X47840326Y-46781327D01*
X47850469Y-46627082D01*
X47885531Y-46469975D01*
X47945638Y-46327895D01*
X47968553Y-46288201D01*
X48059243Y-46166699D01*
X48170111Y-46063230D01*
X48301158Y-45977793D01*
X48329789Y-45962869D01*
X48466413Y-45906197D01*
X48614977Y-45868072D01*
X48775481Y-45848495D01*
X48869810Y-45845633D01*
X49020752Y-45852960D01*
X49178300Y-45878720D01*
X49322865Y-45923027D01*
X49412029Y-45962869D01*
X49545952Y-46044700D01*
X49660126Y-46144563D01*
X49754551Y-46262458D01*
X49771066Y-46288201D01*
X49839072Y-46426160D01*
X49881891Y-46579002D01*
X49898892Y-46729286D01*
X49900026Y-46782060D01*
X49266948Y-46782060D01*
X49247033Y-46635680D01*
X49169302Y-46503939D01*
X49162901Y-46497761D01*
X49028727Y-46421721D01*
X48881586Y-46400403D01*
X48869810Y-46400308D01*
X48720304Y-46418961D01*
X48589970Y-46485960D01*
X48576718Y-46497761D01*
X48496104Y-46626534D01*
X48473403Y-46782060D01*
X48473403Y-48098040D01*
X48496104Y-48250893D01*
X48576718Y-48380141D01*
X48710892Y-48457896D01*
X48858033Y-48479694D01*
X48869810Y-48479792D01*
X49019315Y-48460718D01*
X49149649Y-48392208D01*
X49162901Y-48380141D01*
X49244086Y-48250322D01*
X49266948Y-48097307D01*
X49900026Y-48097307D01*
X49889825Y-48250013D01*
X49854562Y-48406633D01*
X49794112Y-48549515D01*
X49771066Y-48589701D01*
X49680591Y-48712047D01*
X49570367Y-48816217D01*
X49440393Y-48902212D01*
X49412029Y-48917231D01*
X49276119Y-48973903D01*
X49127226Y-49012027D01*
X48965350Y-49031605D01*
X48869810Y-49034467D01*
G37*
G36*
X50361645Y-48987573D02*
G01*
X50361645Y-45892527D01*
X50994722Y-45892527D01*
X50994722Y-47111787D01*
X51290745Y-47111787D01*
X51805120Y-45892527D01*
X52488756Y-45892527D01*
X51847618Y-47363846D01*
X52514401Y-48987573D01*
X51821973Y-48987573D01*
X51294408Y-47666463D01*
X50994722Y-47666463D01*
X50994722Y-48987573D01*
X50361645Y-48987573D01*
G37*
G36*
X54091920Y-45900221D02*
G01*
X54239061Y-45923302D01*
X54392224Y-45967660D01*
X54502294Y-46015626D01*
X54630025Y-46092165D01*
X54751555Y-46195291D01*
X54851618Y-46317450D01*
X54877451Y-46357810D01*
X54947776Y-46502638D01*
X54988798Y-46645709D01*
X55008724Y-46800836D01*
X55010807Y-46873651D01*
X55000143Y-47032184D01*
X54968149Y-47179705D01*
X54914826Y-47316214D01*
X54875985Y-47387293D01*
X54781346Y-47516007D01*
X54665956Y-47625545D01*
X54544362Y-47707732D01*
X54500096Y-47731676D01*
X54358184Y-47790827D01*
X54202825Y-47830620D01*
X54053440Y-47849740D01*
X53934429Y-47854041D01*
X53516774Y-47854041D01*
X53516774Y-48987573D01*
X52883696Y-48987573D01*
X52883696Y-47299366D01*
X53516774Y-47299366D01*
X53934429Y-47299366D01*
X54085674Y-47279413D01*
X54217989Y-47213295D01*
X54257563Y-47178466D01*
X54343816Y-47050911D01*
X54376674Y-46907456D01*
X54377730Y-46873651D01*
X54354729Y-46724787D01*
X54279038Y-46592058D01*
X54257563Y-46568836D01*
X54136568Y-46485688D01*
X53983877Y-46449103D01*
X53934429Y-46447203D01*
X53516774Y-46447203D01*
X53516774Y-47299366D01*
X52883696Y-47299366D01*
X52883696Y-45892527D01*
X53934429Y-45892527D01*
X54091920Y-45900221D01*
G37*
G36*
X55607981Y-48987573D02*
G01*
X55607981Y-45892527D01*
X56241059Y-45892527D01*
X56241059Y-48432897D01*
X57486697Y-48432897D01*
X57486697Y-48987573D01*
X55607981Y-48987573D01*
G37*
G36*
X60067367Y-48987573D02*
G01*
X59421833Y-48987573D01*
X59273822Y-48284153D01*
X58539628Y-48284153D01*
X58391617Y-48987573D01*
X57746083Y-48987573D01*
X58043682Y-47768312D01*
X58645141Y-47768312D01*
X59163913Y-47768312D01*
X59016634Y-47028989D01*
X58988148Y-46879721D01*
X58959018Y-46731418D01*
X58955085Y-46711718D01*
X58925745Y-46563409D01*
X58906725Y-46465521D01*
X58879872Y-46610273D01*
X58862029Y-46709519D01*
X58835163Y-46856115D01*
X58805400Y-47004643D01*
X58801212Y-47024593D01*
X58645141Y-47768312D01*
X58043682Y-47768312D01*
X58501526Y-45892527D01*
X59303131Y-45892527D01*
X60067367Y-48987573D01*
G37*
G36*
X60411750Y-48987573D02*
G01*
X60411750Y-45892527D01*
X61150340Y-45892527D01*
X61947549Y-48294411D01*
X61935808Y-48147310D01*
X61923399Y-47994140D01*
X61918239Y-47930978D01*
X61906424Y-47776555D01*
X61896258Y-47622133D01*
X61890396Y-47519185D01*
X61883754Y-47361577D01*
X61880388Y-47214837D01*
X61880138Y-47168208D01*
X61880138Y-45892527D01*
X62437011Y-45892527D01*
X62437011Y-48987573D01*
X61698421Y-48987573D01*
X60909272Y-46612799D01*
X60922278Y-46760078D01*
X60933358Y-46909383D01*
X60934918Y-46932269D01*
X60944676Y-47083142D01*
X60953708Y-47235707D01*
X60957632Y-47306693D01*
X60964748Y-47453278D01*
X60968451Y-47604982D01*
X60968623Y-47642283D01*
X60968623Y-48987573D01*
X60411750Y-48987573D01*
G37*
G36*
X63013669Y-48987573D02*
G01*
X63013669Y-45892527D01*
X64912901Y-45892527D01*
X64912901Y-46447203D01*
X63634290Y-46447203D01*
X63634290Y-47111787D01*
X64764890Y-47111787D01*
X64764890Y-47666463D01*
X63634290Y-47666463D01*
X63634290Y-48432897D01*
X64912901Y-48432897D01*
X64912901Y-48987573D01*
X63013669Y-48987573D01*
G37*
D12*
X197901141Y-88497224D02*
X222901141Y-88497224D01*
X222901141Y-136197224D01*
X197901141Y-136197224D01*
X197901141Y-88497224D01*
X168001141Y-88497224D02*
X193001141Y-88497224D01*
X193001141Y-136197224D01*
X168001141Y-136197224D01*
X168001141Y-88497224D01*
X138201141Y-88497224D02*
X163201141Y-88497224D01*
X163201141Y-136197224D01*
X138201141Y-136197224D01*
X138201141Y-88497224D01*
X108301141Y-88497224D02*
X133301141Y-88497224D01*
X133301141Y-136197224D01*
X108301141Y-136197224D01*
X108301141Y-88497224D01*
X78451141Y-88497224D02*
X103451141Y-88497224D01*
X103451141Y-136197224D01*
X78451141Y-136197224D01*
X78451141Y-88497224D01*
X48600000Y-88500000D02*
X73600000Y-88500000D01*
X73600000Y-136200000D01*
X48600000Y-136200000D01*
X48600000Y-88500000D01*
D13*
X199404819Y-122855318D02*
X198404819Y-122855318D01*
X198404819Y-122855318D02*
X198404819Y-122617223D01*
X198404819Y-122617223D02*
X198452438Y-122474366D01*
X198452438Y-122474366D02*
X198547676Y-122379128D01*
X198547676Y-122379128D02*
X198642914Y-122331509D01*
X198642914Y-122331509D02*
X198833390Y-122283890D01*
X198833390Y-122283890D02*
X198976247Y-122283890D01*
X198976247Y-122283890D02*
X199166723Y-122331509D01*
X199166723Y-122331509D02*
X199261961Y-122379128D01*
X199261961Y-122379128D02*
X199357200Y-122474366D01*
X199357200Y-122474366D02*
X199404819Y-122617223D01*
X199404819Y-122617223D02*
X199404819Y-122855318D01*
X199404819Y-121331509D02*
X199404819Y-121902937D01*
X199404819Y-121617223D02*
X198404819Y-121617223D01*
X198404819Y-121617223D02*
X198547676Y-121712461D01*
X198547676Y-121712461D02*
X198642914Y-121807699D01*
X198642914Y-121807699D02*
X198690533Y-121902937D01*
X219105960Y-104450557D02*
X219820245Y-104450557D01*
X219820245Y-104450557D02*
X219963102Y-104498176D01*
X219963102Y-104498176D02*
X220058341Y-104593414D01*
X220058341Y-104593414D02*
X220105960Y-104736271D01*
X220105960Y-104736271D02*
X220105960Y-104831509D01*
X219105960Y-104069604D02*
X219105960Y-103402938D01*
X219105960Y-103402938D02*
X220105960Y-103831509D01*
X169454819Y-122838094D02*
X168454819Y-122838094D01*
X168454819Y-122838094D02*
X168454819Y-122599999D01*
X168454819Y-122599999D02*
X168502438Y-122457142D01*
X168502438Y-122457142D02*
X168597676Y-122361904D01*
X168597676Y-122361904D02*
X168692914Y-122314285D01*
X168692914Y-122314285D02*
X168883390Y-122266666D01*
X168883390Y-122266666D02*
X169026247Y-122266666D01*
X169026247Y-122266666D02*
X169216723Y-122314285D01*
X169216723Y-122314285D02*
X169311961Y-122361904D01*
X169311961Y-122361904D02*
X169407200Y-122457142D01*
X169407200Y-122457142D02*
X169454819Y-122599999D01*
X169454819Y-122599999D02*
X169454819Y-122838094D01*
X169454819Y-121314285D02*
X169454819Y-121885713D01*
X169454819Y-121599999D02*
X168454819Y-121599999D01*
X168454819Y-121599999D02*
X168597676Y-121695237D01*
X168597676Y-121695237D02*
X168692914Y-121790475D01*
X168692914Y-121790475D02*
X168740533Y-121885713D01*
X189205960Y-104450557D02*
X189920245Y-104450557D01*
X189920245Y-104450557D02*
X190063102Y-104498176D01*
X190063102Y-104498176D02*
X190158341Y-104593414D01*
X190158341Y-104593414D02*
X190205960Y-104736271D01*
X190205960Y-104736271D02*
X190205960Y-104831509D01*
X189205960Y-104069604D02*
X189205960Y-103402938D01*
X189205960Y-103402938D02*
X190205960Y-103831509D01*
X139654819Y-122788094D02*
X138654819Y-122788094D01*
X138654819Y-122788094D02*
X138654819Y-122549999D01*
X138654819Y-122549999D02*
X138702438Y-122407142D01*
X138702438Y-122407142D02*
X138797676Y-122311904D01*
X138797676Y-122311904D02*
X138892914Y-122264285D01*
X138892914Y-122264285D02*
X139083390Y-122216666D01*
X139083390Y-122216666D02*
X139226247Y-122216666D01*
X139226247Y-122216666D02*
X139416723Y-122264285D01*
X139416723Y-122264285D02*
X139511961Y-122311904D01*
X139511961Y-122311904D02*
X139607200Y-122407142D01*
X139607200Y-122407142D02*
X139654819Y-122549999D01*
X139654819Y-122549999D02*
X139654819Y-122788094D01*
X139654819Y-121264285D02*
X139654819Y-121835713D01*
X139654819Y-121549999D02*
X138654819Y-121549999D01*
X138654819Y-121549999D02*
X138797676Y-121645237D01*
X138797676Y-121645237D02*
X138892914Y-121740475D01*
X138892914Y-121740475D02*
X138940533Y-121835713D01*
X159405960Y-104450557D02*
X160120245Y-104450557D01*
X160120245Y-104450557D02*
X160263102Y-104498176D01*
X160263102Y-104498176D02*
X160358341Y-104593414D01*
X160358341Y-104593414D02*
X160405960Y-104736271D01*
X160405960Y-104736271D02*
X160405960Y-104831509D01*
X159405960Y-104069604D02*
X159405960Y-103402938D01*
X159405960Y-103402938D02*
X160405960Y-103831509D01*
X109554819Y-122838094D02*
X108554819Y-122838094D01*
X108554819Y-122838094D02*
X108554819Y-122599999D01*
X108554819Y-122599999D02*
X108602438Y-122457142D01*
X108602438Y-122457142D02*
X108697676Y-122361904D01*
X108697676Y-122361904D02*
X108792914Y-122314285D01*
X108792914Y-122314285D02*
X108983390Y-122266666D01*
X108983390Y-122266666D02*
X109126247Y-122266666D01*
X109126247Y-122266666D02*
X109316723Y-122314285D01*
X109316723Y-122314285D02*
X109411961Y-122361904D01*
X109411961Y-122361904D02*
X109507200Y-122457142D01*
X109507200Y-122457142D02*
X109554819Y-122599999D01*
X109554819Y-122599999D02*
X109554819Y-122838094D01*
X109554819Y-121314285D02*
X109554819Y-121885713D01*
X109554819Y-121599999D02*
X108554819Y-121599999D01*
X108554819Y-121599999D02*
X108697676Y-121695237D01*
X108697676Y-121695237D02*
X108792914Y-121790475D01*
X108792914Y-121790475D02*
X108840533Y-121885713D01*
X129505960Y-104450557D02*
X130220245Y-104450557D01*
X130220245Y-104450557D02*
X130363102Y-104498176D01*
X130363102Y-104498176D02*
X130458341Y-104593414D01*
X130458341Y-104593414D02*
X130505960Y-104736271D01*
X130505960Y-104736271D02*
X130505960Y-104831509D01*
X129505960Y-104069604D02*
X129505960Y-103402938D01*
X129505960Y-103402938D02*
X130505960Y-103831509D01*
X99655960Y-104450557D02*
X100370245Y-104450557D01*
X100370245Y-104450557D02*
X100513102Y-104498176D01*
X100513102Y-104498176D02*
X100608341Y-104593414D01*
X100608341Y-104593414D02*
X100655960Y-104736271D01*
X100655960Y-104736271D02*
X100655960Y-104831509D01*
X99655960Y-104069604D02*
X99655960Y-103402938D01*
X99655960Y-103402938D02*
X100655960Y-103831509D01*
X79954819Y-122855318D02*
X78954819Y-122855318D01*
X78954819Y-122855318D02*
X78954819Y-122617223D01*
X78954819Y-122617223D02*
X79002438Y-122474366D01*
X79002438Y-122474366D02*
X79097676Y-122379128D01*
X79097676Y-122379128D02*
X79192914Y-122331509D01*
X79192914Y-122331509D02*
X79383390Y-122283890D01*
X79383390Y-122283890D02*
X79526247Y-122283890D01*
X79526247Y-122283890D02*
X79716723Y-122331509D01*
X79716723Y-122331509D02*
X79811961Y-122379128D01*
X79811961Y-122379128D02*
X79907200Y-122474366D01*
X79907200Y-122474366D02*
X79954819Y-122617223D01*
X79954819Y-122617223D02*
X79954819Y-122855318D01*
X79954819Y-121331509D02*
X79954819Y-121902937D01*
X79954819Y-121617223D02*
X78954819Y-121617223D01*
X78954819Y-121617223D02*
X79097676Y-121712461D01*
X79097676Y-121712461D02*
X79192914Y-121807699D01*
X79192914Y-121807699D02*
X79240533Y-121902937D01*
X49904819Y-122858094D02*
X48904819Y-122858094D01*
X48904819Y-122858094D02*
X48904819Y-122619999D01*
X48904819Y-122619999D02*
X48952438Y-122477142D01*
X48952438Y-122477142D02*
X49047676Y-122381904D01*
X49047676Y-122381904D02*
X49142914Y-122334285D01*
X49142914Y-122334285D02*
X49333390Y-122286666D01*
X49333390Y-122286666D02*
X49476247Y-122286666D01*
X49476247Y-122286666D02*
X49666723Y-122334285D01*
X49666723Y-122334285D02*
X49761961Y-122381904D01*
X49761961Y-122381904D02*
X49857200Y-122477142D01*
X49857200Y-122477142D02*
X49904819Y-122619999D01*
X49904819Y-122619999D02*
X49904819Y-122858094D01*
X49904819Y-121334285D02*
X49904819Y-121905713D01*
X49904819Y-121619999D02*
X48904819Y-121619999D01*
X48904819Y-121619999D02*
X49047676Y-121715237D01*
X49047676Y-121715237D02*
X49142914Y-121810475D01*
X49142914Y-121810475D02*
X49190533Y-121905713D01*
X69804819Y-104453333D02*
X70519104Y-104453333D01*
X70519104Y-104453333D02*
X70661961Y-104500952D01*
X70661961Y-104500952D02*
X70757200Y-104596190D01*
X70757200Y-104596190D02*
X70804819Y-104739047D01*
X70804819Y-104739047D02*
X70804819Y-104834285D01*
X69804819Y-104072380D02*
X69804819Y-103405714D01*
X69804819Y-103405714D02*
X70804819Y-103834285D01*
D14*
G36*
X50471599Y-38792174D02*
G01*
X50525721Y-38792222D01*
X50631663Y-38792564D01*
X50714246Y-38793663D01*
X50775743Y-38795629D01*
X50818431Y-38798572D01*
X50844584Y-38802603D01*
X50856478Y-38807831D01*
X50856839Y-38808249D01*
X50862595Y-38824949D01*
X50871970Y-38863200D01*
X50884177Y-38919288D01*
X50898428Y-38989501D01*
X50913935Y-39070129D01*
X50924175Y-39125589D01*
X50939765Y-39210771D01*
X50954081Y-39287804D01*
X50966423Y-39353011D01*
X50976088Y-39402714D01*
X50982377Y-39433237D01*
X50984318Y-39441040D01*
X50998321Y-39454029D01*
X51028157Y-39471663D01*
X51049975Y-39482231D01*
X51088471Y-39498926D01*
X51139526Y-39520249D01*
X51198293Y-39544272D01*
X51259924Y-39569066D01*
X51319571Y-39592701D01*
X51372386Y-39613250D01*
X51413522Y-39628783D01*
X51438131Y-39637372D01*
X51442646Y-39638461D01*
X51455988Y-39631564D01*
X51486420Y-39612580D01*
X51529985Y-39584074D01*
X51582726Y-39548609D01*
X51608079Y-39531281D01*
X51706813Y-39463555D01*
X51786644Y-39409033D01*
X51849748Y-39366315D01*
X51898300Y-39334000D01*
X51934476Y-39310688D01*
X51960452Y-39294978D01*
X51978402Y-39285469D01*
X51990503Y-39280761D01*
X51998929Y-39279452D01*
X51999208Y-39279451D01*
X52013417Y-39288189D01*
X52042302Y-39312382D01*
X52082792Y-39349001D01*
X52131817Y-39395015D01*
X52186305Y-39447393D01*
X52243188Y-39503105D01*
X52299393Y-39559120D01*
X52351851Y-39612408D01*
X52397491Y-39659940D01*
X52433242Y-39698683D01*
X52456034Y-39725608D01*
X52462933Y-39737118D01*
X52455940Y-39751879D01*
X52436823Y-39783146D01*
X52408369Y-39826562D01*
X52373368Y-39877773D01*
X52367367Y-39886370D01*
X52300682Y-39982324D01*
X52241518Y-40068853D01*
X52191204Y-40143930D01*
X52151071Y-40205525D01*
X52122451Y-40251609D01*
X52106672Y-40280154D01*
X52103922Y-40288096D01*
X52108820Y-40305198D01*
X52121982Y-40339808D01*
X52141113Y-40386070D01*
X52153967Y-40415767D01*
X52181998Y-40480161D01*
X52211881Y-40549837D01*
X52238189Y-40612116D01*
X52243860Y-40625740D01*
X52263760Y-40672763D01*
X52280898Y-40711458D01*
X52292207Y-40734952D01*
X52293739Y-40737606D01*
X52308645Y-40744203D01*
X52345259Y-40754463D01*
X52400043Y-40767574D01*
X52469455Y-40782719D01*
X52549954Y-40799086D01*
X52616887Y-40811936D01*
X52703225Y-40828318D01*
X52780999Y-40843485D01*
X52846719Y-40856724D01*
X52896897Y-40867322D01*
X52928045Y-40874563D01*
X52936876Y-40877414D01*
X52939425Y-40892131D01*
X52941768Y-40928119D01*
X52943854Y-40981007D01*
X52945630Y-41046423D01*
X52947043Y-41119995D01*
X52948041Y-41197350D01*
X52948572Y-41274119D01*
X52948583Y-41345927D01*
X52948023Y-41408404D01*
X52946838Y-41457179D01*
X52944976Y-41487878D01*
X52944254Y-41493040D01*
X52938360Y-41513647D01*
X52926971Y-41529571D01*
X52906320Y-41542324D01*
X52872644Y-41553416D01*
X52822178Y-41564361D01*
X52751158Y-41576669D01*
X52725780Y-41580773D01*
X52654552Y-41592787D01*
X52571719Y-41607663D01*
X52490762Y-41622951D01*
X52457051Y-41629610D01*
X52316540Y-41657896D01*
X52268800Y-41773292D01*
X52242376Y-41837744D01*
X52211563Y-41913779D01*
X52181330Y-41989107D01*
X52168242Y-42022013D01*
X52115424Y-42155337D01*
X52185488Y-42259216D01*
X52220403Y-42310790D01*
X52264342Y-42375410D01*
X52311798Y-42444989D01*
X52357264Y-42511442D01*
X52359242Y-42514328D01*
X52396299Y-42568985D01*
X52427502Y-42616167D01*
X52450247Y-42651849D01*
X52461933Y-42672005D01*
X52462933Y-42674734D01*
X52454225Y-42685925D01*
X52429719Y-42712638D01*
X52391838Y-42752356D01*
X52343009Y-42802559D01*
X52285656Y-42860730D01*
X52232333Y-42914240D01*
X52001734Y-43144572D01*
X51959870Y-43119983D01*
X51928650Y-43100380D01*
X51885450Y-43071674D01*
X51839103Y-43039743D01*
X51834664Y-43036619D01*
X51787924Y-43003955D01*
X51727125Y-42961885D01*
X51659462Y-42915351D01*
X51592130Y-42869294D01*
X51532325Y-42828657D01*
X51507828Y-42812140D01*
X51491364Y-42809885D01*
X51461682Y-42818450D01*
X51415766Y-42838936D01*
X51367646Y-42863427D01*
X51312928Y-42891601D01*
X51276050Y-42908649D01*
X51252497Y-42916010D01*
X51237757Y-42915125D01*
X51227867Y-42908022D01*
X51215855Y-42888734D01*
X51197336Y-42851242D01*
X51175010Y-42801274D01*
X51155412Y-42754160D01*
X51129013Y-42689046D01*
X51101741Y-42622558D01*
X51077541Y-42564285D01*
X51065685Y-42536190D01*
X51022516Y-42434178D01*
X50979956Y-42332170D01*
X50939163Y-42233074D01*
X50901299Y-42139795D01*
X50867523Y-42055243D01*
X50838996Y-41982323D01*
X50816878Y-41923943D01*
X50802329Y-41883011D01*
X50796508Y-41862433D01*
X50796451Y-41861488D01*
X50807892Y-41840087D01*
X50839828Y-41810832D01*
X50874424Y-41786114D01*
X50983645Y-41700435D01*
X51070388Y-41602830D01*
X51134337Y-41493867D01*
X51175180Y-41374113D01*
X51192602Y-41244136D01*
X51193260Y-41209644D01*
X51183930Y-41083702D01*
X51155526Y-40972221D01*
X51106195Y-40870664D01*
X51034087Y-40774495D01*
X51001453Y-40739562D01*
X50904373Y-40657030D01*
X50799805Y-40597104D01*
X50690225Y-40558765D01*
X50578111Y-40540990D01*
X50465939Y-40542760D01*
X50356187Y-40563052D01*
X50251330Y-40600846D01*
X50153845Y-40655120D01*
X50066210Y-40724854D01*
X49990901Y-40809027D01*
X49930394Y-40906616D01*
X49887167Y-41016602D01*
X49863697Y-41137963D01*
X49860106Y-41210109D01*
X49871322Y-41335929D01*
X49905808Y-41453956D01*
X49956632Y-41555322D01*
X49997630Y-41617995D01*
X50040590Y-41669821D01*
X50092289Y-41717838D01*
X50159507Y-41769086D01*
X50168942Y-41775790D01*
X50209868Y-41805800D01*
X50242063Y-41831461D01*
X50260130Y-41848401D01*
X50262014Y-41851187D01*
X50258730Y-41866023D01*
X50246648Y-41901533D01*
X50226906Y-41954750D01*
X50200640Y-42022708D01*
X50168988Y-42102438D01*
X50133086Y-42190975D01*
X50114630Y-42235842D01*
X50058266Y-42372255D01*
X50010866Y-42487004D01*
X49971595Y-42582122D01*
X49939618Y-42659643D01*
X49914102Y-42721600D01*
X49894213Y-42770027D01*
X49879115Y-42806958D01*
X49867974Y-42834426D01*
X49859956Y-42854464D01*
X49854227Y-42869106D01*
X49849951Y-42880387D01*
X49848031Y-42885584D01*
X49832310Y-42910945D01*
X49814189Y-42920844D01*
X49794215Y-42914824D01*
X49758407Y-42898715D01*
X49713031Y-42875443D01*
X49690682Y-42863146D01*
X49643741Y-42837663D01*
X49604305Y-42817935D01*
X49578296Y-42806851D01*
X49572358Y-42805448D01*
X49554546Y-42812392D01*
X49522898Y-42830607D01*
X49484233Y-42856165D01*
X49483853Y-42856430D01*
X49418526Y-42901780D01*
X49349842Y-42948747D01*
X49281204Y-42995081D01*
X49216014Y-43038534D01*
X49157674Y-43076856D01*
X49109587Y-43107799D01*
X49075154Y-43129113D01*
X49057777Y-43138550D01*
X49056679Y-43138815D01*
X49044921Y-43130106D01*
X49017743Y-43105631D01*
X48977746Y-43067872D01*
X48927529Y-43019306D01*
X48869692Y-42962414D01*
X48824607Y-42917505D01*
X48763142Y-42855062D01*
X48708249Y-42797565D01*
X48662427Y-42747775D01*
X48628175Y-42708451D01*
X48607990Y-42682352D01*
X48603569Y-42673389D01*
X48610542Y-42654639D01*
X48629595Y-42619760D01*
X48657930Y-42573507D01*
X48692748Y-42520638D01*
X48697794Y-42513250D01*
X48766457Y-42412983D01*
X48821629Y-42331947D01*
X48864495Y-42268346D01*
X48896239Y-42220381D01*
X48918045Y-42186256D01*
X48931099Y-42164173D01*
X48936584Y-42152334D01*
X48936936Y-42150328D01*
X48932183Y-42133532D01*
X48919171Y-42097727D01*
X48899766Y-42047461D01*
X48875836Y-41987284D01*
X48849250Y-41921744D01*
X48821875Y-41855390D01*
X48795578Y-41792772D01*
X48772228Y-41738438D01*
X48753692Y-41696939D01*
X48741838Y-41672822D01*
X48739308Y-41668978D01*
X48721712Y-41661305D01*
X48682252Y-41650299D01*
X48624383Y-41636700D01*
X48551560Y-41621247D01*
X48467237Y-41604678D01*
X48374869Y-41587733D01*
X48295845Y-41574126D01*
X48243395Y-41564649D01*
X48193449Y-41554455D01*
X48164422Y-41547652D01*
X48116340Y-41535100D01*
X48116340Y-41209395D01*
X48116889Y-41092259D01*
X48118530Y-41000125D01*
X48121258Y-40933147D01*
X48125067Y-40891480D01*
X48129950Y-40875279D01*
X48129964Y-40875270D01*
X48145935Y-40870636D01*
X48183475Y-40862140D01*
X48238931Y-40850535D01*
X48308647Y-40836571D01*
X48388967Y-40821003D01*
X48446521Y-40810118D01*
X48531239Y-40794100D01*
X48607209Y-40779446D01*
X48670917Y-40766856D01*
X48718847Y-40757033D01*
X48747484Y-40750679D01*
X48754150Y-40748691D01*
X48761025Y-40735486D01*
X48776026Y-40703146D01*
X48797191Y-40656115D01*
X48822557Y-40598835D01*
X48850162Y-40535747D01*
X48878044Y-40471293D01*
X48904240Y-40409916D01*
X48913249Y-40388551D01*
X48930730Y-40341691D01*
X48941939Y-40301197D01*
X48944730Y-40275015D01*
X48944383Y-40273155D01*
X48935440Y-40255533D01*
X48913975Y-40220248D01*
X48882160Y-40170655D01*
X48842166Y-40110109D01*
X48796164Y-40041963D01*
X48770700Y-40004799D01*
X48722845Y-39934410D01*
X48680336Y-39870167D01*
X48645247Y-39815345D01*
X48619648Y-39773216D01*
X48605612Y-39747053D01*
X48603569Y-39740759D01*
X48612371Y-39725841D01*
X48636737Y-39696388D01*
X48673607Y-39655480D01*
X48719919Y-39606194D01*
X48772614Y-39551611D01*
X48828630Y-39494808D01*
X48884907Y-39438865D01*
X48938384Y-39386861D01*
X48986001Y-39341874D01*
X49024697Y-39306984D01*
X49051412Y-39285268D01*
X49062141Y-39279451D01*
X49077646Y-39286460D01*
X49110897Y-39306101D01*
X49158635Y-39336290D01*
X49217602Y-39374947D01*
X49284541Y-39419988D01*
X49319706Y-39444062D01*
X49390365Y-39492509D01*
X49455437Y-39536746D01*
X49511446Y-39574440D01*
X49554917Y-39603260D01*
X49582375Y-39620873D01*
X49588642Y-39624553D01*
X49603375Y-39629974D01*
X49621957Y-39630303D01*
X49648753Y-39624412D01*
X49688131Y-39611171D01*
X49744458Y-39589450D01*
X49780969Y-39574803D01*
X49871999Y-39537783D01*
X49941879Y-39508659D01*
X49993381Y-39486088D01*
X50029277Y-39468730D01*
X50052339Y-39455243D01*
X50065340Y-39444286D01*
X50071050Y-39434517D01*
X50071081Y-39434419D01*
X50076250Y-39412849D01*
X50085137Y-39370987D01*
X50096785Y-39313754D01*
X50110238Y-39246071D01*
X50124540Y-39172860D01*
X50138736Y-39099042D01*
X50151869Y-39029540D01*
X50162984Y-38969275D01*
X50171124Y-38923168D01*
X50174649Y-38901207D01*
X50179072Y-38868265D01*
X50183645Y-38842700D01*
X50191364Y-38823583D01*
X50205227Y-38809983D01*
X50228231Y-38800970D01*
X50263373Y-38795612D01*
X50313651Y-38792981D01*
X50382060Y-38792145D01*
X50471599Y-38792174D01*
G37*
G36*
X32836422Y-41639423D02*
G01*
X33099578Y-41791257D01*
X33113994Y-42380270D01*
X33128410Y-42969282D01*
X34124505Y-43536724D01*
X35120599Y-44104166D01*
X35120599Y-44397529D01*
X35114838Y-44552794D01*
X35099886Y-44657535D01*
X35083173Y-44686761D01*
X35031944Y-44661564D01*
X34905801Y-44592441D01*
X34716025Y-44485785D01*
X34473893Y-44347984D01*
X34190686Y-44185431D01*
X33877683Y-44004514D01*
X33823153Y-43972875D01*
X32600560Y-43263121D01*
X32586914Y-42375356D01*
X32573267Y-41487590D01*
X32836422Y-41639423D01*
G37*
G36*
X36803153Y-40993505D02*
G01*
X36813884Y-41110672D01*
X36816628Y-41235196D01*
X36815997Y-41522131D01*
X36317610Y-41811021D01*
X35819224Y-42099912D01*
X35819224Y-43262717D01*
X35819224Y-44425523D01*
X35569715Y-44561323D01*
X35320206Y-44697122D01*
X35321095Y-43234381D01*
X35321985Y-41771640D01*
X36039350Y-41359950D01*
X36280118Y-41222773D01*
X36490201Y-41104969D01*
X36654607Y-41014792D01*
X36758345Y-40960499D01*
X36786987Y-40948261D01*
X36803153Y-40993505D01*
G37*
G36*
X37842343Y-40397270D02*
G01*
X37849427Y-40532482D01*
X37855512Y-40742651D01*
X37860334Y-41015357D01*
X37863628Y-41338178D01*
X37865131Y-41698690D01*
X37865197Y-41792835D01*
X37865197Y-43236231D01*
X37168805Y-43639910D01*
X36927436Y-43778921D01*
X36712457Y-43901041D01*
X36540410Y-43997005D01*
X36427833Y-44057549D01*
X36395328Y-44073169D01*
X36351674Y-44074154D01*
X36328174Y-44021916D01*
X36319334Y-43897632D01*
X36318679Y-43810476D01*
X36319117Y-43518202D01*
X36805221Y-43242041D01*
X37291326Y-42965879D01*
X37304687Y-41789863D01*
X37318048Y-40613846D01*
X37560949Y-40481643D01*
X37699951Y-40408772D01*
X37801348Y-40360756D01*
X37834523Y-40349440D01*
X37842343Y-40397270D01*
G37*
G36*
X32670918Y-40385850D02*
G01*
X32799044Y-40456943D01*
X32991057Y-40564614D01*
X33235546Y-40702442D01*
X33521100Y-40864008D01*
X33836308Y-41042890D01*
X33889303Y-41073015D01*
X35118035Y-41771640D01*
X35119317Y-42632445D01*
X35118058Y-42961607D01*
X35112661Y-43201499D01*
X35102379Y-43362601D01*
X35086469Y-43455388D01*
X35064184Y-43490339D01*
X35058222Y-43491304D01*
X34981452Y-43465867D01*
X34856538Y-43403394D01*
X34783762Y-43361482D01*
X34571680Y-43233608D01*
X34571186Y-42652329D01*
X34570691Y-42071051D01*
X33573150Y-41498248D01*
X32575609Y-40925445D01*
X32575609Y-40633284D01*
X32582114Y-40480937D01*
X32599006Y-40381622D01*
X32618090Y-40357756D01*
X32670918Y-40385850D01*
G37*
G36*
X38663625Y-42118571D02*
G01*
X38663625Y-42889667D01*
X38975511Y-42904524D01*
X39287397Y-42919381D01*
X39302885Y-43106512D01*
X39318372Y-43293644D01*
X38741490Y-43293644D01*
X38164607Y-43293644D01*
X38164607Y-42320559D01*
X38164607Y-41347475D01*
X38414116Y-41347475D01*
X38663625Y-41347475D01*
X38663625Y-42118571D01*
G37*
G36*
X40375146Y-41357766D02*
G01*
X40674268Y-41372426D01*
X40990945Y-42245707D01*
X41093061Y-42527731D01*
X41184648Y-42781475D01*
X41259753Y-42990382D01*
X41312424Y-43137896D01*
X41336333Y-43206316D01*
X41340495Y-43256807D01*
X41296502Y-43283154D01*
X41183790Y-43292780D01*
X41094442Y-43293644D01*
X40937573Y-43290201D01*
X40851320Y-43269922D01*
X40806512Y-43217882D01*
X40777487Y-43131463D01*
X40749625Y-43047193D01*
X40709926Y-42997694D01*
X40633995Y-42972239D01*
X40497437Y-42960097D01*
X40375615Y-42954713D01*
X40020095Y-42940143D01*
X39961762Y-43116894D01*
X39922968Y-43218815D01*
X39873535Y-43271333D01*
X39783113Y-43290818D01*
X39634094Y-43293644D01*
X39364760Y-43293644D01*
X39506748Y-42906905D01*
X39583090Y-42698393D01*
X39645850Y-42526440D01*
X40160678Y-42526440D01*
X40205003Y-42538142D01*
X40315717Y-42544645D01*
X40360285Y-42545117D01*
X40501696Y-42530670D01*
X40555790Y-42489145D01*
X40556024Y-42482740D01*
X40537739Y-42402794D01*
X40495169Y-42266318D01*
X40461954Y-42170854D01*
X40402366Y-42030221D01*
X40359033Y-41980396D01*
X40341899Y-41996198D01*
X40303087Y-42099806D01*
X40254185Y-42238104D01*
X40206606Y-42377703D01*
X40171761Y-42485214D01*
X40160678Y-42526440D01*
X39645850Y-42526440D01*
X39679849Y-42433288D01*
X39783445Y-42148831D01*
X39862380Y-41931636D01*
X40076025Y-41343106D01*
X40375146Y-41357766D01*
G37*
G36*
X42412854Y-41351012D02*
G01*
X42609230Y-41363140D01*
X42745404Y-41386135D01*
X42841075Y-41422273D01*
X42855897Y-41430575D01*
X43014222Y-41571912D01*
X43092824Y-41747701D01*
X43088038Y-41934649D01*
X42996196Y-42109469D01*
X42967652Y-42140338D01*
X42830422Y-42276800D01*
X42965818Y-42388284D01*
X43091492Y-42548477D01*
X43137368Y-42737101D01*
X43107637Y-42928670D01*
X43006484Y-43097696D01*
X42838099Y-43218691D01*
X42828711Y-43222722D01*
X42662580Y-43263482D01*
X42402208Y-43287196D01*
X42108450Y-43293644D01*
X41557927Y-43293644D01*
X41557927Y-42894430D01*
X42056945Y-42894430D01*
X42269028Y-42893666D01*
X42417381Y-42883747D01*
X42528118Y-42859936D01*
X42547483Y-42850825D01*
X42591700Y-42773010D01*
X42597385Y-42664457D01*
X42580520Y-42579863D01*
X42537093Y-42534782D01*
X42440379Y-42513919D01*
X42318929Y-42505083D01*
X42056945Y-42490000D01*
X42056945Y-42692215D01*
X42056945Y-42894430D01*
X41557927Y-42894430D01*
X41557927Y-42692215D01*
X41557927Y-42320559D01*
X41557927Y-41921345D01*
X42056945Y-41921345D01*
X42061816Y-42028959D01*
X42094608Y-42079712D01*
X42182588Y-42094981D01*
X42279747Y-42096001D01*
X42442270Y-42081730D01*
X42531548Y-42033863D01*
X42549976Y-42007385D01*
X42576367Y-41885536D01*
X42514075Y-41798080D01*
X42370390Y-41752034D01*
X42279023Y-41746689D01*
X42142034Y-41750545D01*
X42077534Y-41776434D01*
X42058214Y-41845835D01*
X42056945Y-41921345D01*
X41557927Y-41921345D01*
X41557927Y-41347475D01*
X42136574Y-41347475D01*
X42412854Y-41351012D01*
G37*
G36*
X44294960Y-41325311D02*
G01*
X44420503Y-41366379D01*
X44576027Y-41461512D01*
X44707370Y-41594040D01*
X44788181Y-41733747D01*
X44801542Y-41803320D01*
X44786882Y-41858389D01*
X44727254Y-41886490D01*
X44599190Y-41895947D01*
X44539086Y-41896394D01*
X44370317Y-41887710D01*
X44270769Y-41855606D01*
X44214302Y-41796591D01*
X44115128Y-41712566D01*
X43995753Y-41706909D01*
X43908560Y-41765315D01*
X43870840Y-41855229D01*
X43915882Y-41942730D01*
X44049233Y-42033707D01*
X44244049Y-42121320D01*
X44506694Y-42240945D01*
X44683670Y-42360218D01*
X44788468Y-42490129D01*
X44826734Y-42596117D01*
X44822423Y-42784105D01*
X44745136Y-42977922D01*
X44612275Y-43141050D01*
X44542561Y-43192561D01*
X44352900Y-43263998D01*
X44116334Y-43292628D01*
X43876696Y-43277212D01*
X43678753Y-43216987D01*
X43493284Y-43088066D01*
X43381252Y-42934323D01*
X43354391Y-42814049D01*
X43363385Y-42743011D01*
X43407360Y-42707686D01*
X43511804Y-42695807D01*
X43602144Y-42694823D01*
X43763953Y-42703989D01*
X43856545Y-42737991D01*
X43903310Y-42794626D01*
X43986163Y-42867724D01*
X44105527Y-42895819D01*
X44220053Y-42876954D01*
X44287082Y-42812794D01*
X44295475Y-42714559D01*
X44232448Y-42627031D01*
X44088292Y-42541480D01*
X43901931Y-42466388D01*
X43640422Y-42349569D01*
X43468679Y-42215733D01*
X43376888Y-42054583D01*
X43354391Y-41891856D01*
X43391950Y-41664354D01*
X43508617Y-41495172D01*
X43707680Y-41376657D01*
X44005722Y-41304473D01*
X44294960Y-41325311D01*
G37*
G36*
X37309657Y-39888339D02*
G01*
X37371143Y-39914277D01*
X37441341Y-39954581D01*
X37483698Y-39978912D01*
X37619192Y-40061015D01*
X37676582Y-40117134D01*
X37668910Y-40161943D01*
X37657237Y-40174134D01*
X37602610Y-40210352D01*
X37476514Y-40287329D01*
X37292369Y-40397267D01*
X37063596Y-40532370D01*
X36803616Y-40684840D01*
X36525848Y-40846880D01*
X36243715Y-41010693D01*
X35970636Y-41168481D01*
X35720033Y-41312448D01*
X35505325Y-41434796D01*
X35339935Y-41527727D01*
X35237281Y-41583445D01*
X35209668Y-41596140D01*
X35164035Y-41572048D01*
X35046844Y-41505933D01*
X34872694Y-41406147D01*
X34656186Y-41281041D01*
X34486501Y-41182441D01*
X34247068Y-41042255D01*
X34038328Y-40918614D01*
X33875401Y-40820587D01*
X33773409Y-40757245D01*
X33746533Y-40738569D01*
X33767361Y-40700228D01*
X33849810Y-40635403D01*
X33965799Y-40561362D01*
X34087246Y-40495373D01*
X34186070Y-40454702D01*
X34217050Y-40449243D01*
X34282799Y-40473337D01*
X34413502Y-40538536D01*
X34588760Y-40634218D01*
X34744787Y-40724070D01*
X35211758Y-40998897D01*
X36118242Y-40471701D01*
X36453729Y-40276182D01*
X36714181Y-40125254D01*
X36911563Y-40014598D01*
X37057837Y-39939896D01*
X37164968Y-39896830D01*
X37244920Y-39881084D01*
X37309657Y-39888339D01*
G37*
G36*
X39083550Y-38612282D02*
G01*
X39338929Y-38644505D01*
X39518255Y-38705562D01*
X39632693Y-38801467D01*
X39693406Y-38938234D01*
X39711556Y-39121879D01*
X39711562Y-39125834D01*
X39671353Y-39316326D01*
X39589861Y-39427740D01*
X39468160Y-39549441D01*
X39614812Y-39696093D01*
X39737282Y-39876279D01*
X39762088Y-40068552D01*
X39689215Y-40264369D01*
X39615976Y-40361128D01*
X39470488Y-40524096D01*
X38817547Y-40540537D01*
X38164607Y-40556978D01*
X38164607Y-40155048D01*
X38663625Y-40155048D01*
X38920470Y-40139965D01*
X39109553Y-40113458D01*
X39215508Y-40058547D01*
X39232100Y-40037553D01*
X39264219Y-39922207D01*
X39204473Y-39833962D01*
X39058285Y-39777638D01*
X38920470Y-39760486D01*
X38663625Y-39745403D01*
X38663625Y-39950225D01*
X38663625Y-40155048D01*
X38164607Y-40155048D01*
X38164607Y-39950225D01*
X38164607Y-39579928D01*
X38164607Y-39168431D01*
X38663625Y-39168431D01*
X38672754Y-39291734D01*
X38694928Y-39365785D01*
X38696893Y-39368038D01*
X38784479Y-39399143D01*
X38918415Y-39397597D01*
X39052528Y-39368167D01*
X39134127Y-39322889D01*
X39208548Y-39205575D01*
X39191780Y-39106185D01*
X39092157Y-39035164D01*
X38918013Y-39002961D01*
X38878202Y-39002092D01*
X38744209Y-39006556D01*
X38682245Y-39034295D01*
X38664548Y-39106828D01*
X38663625Y-39168431D01*
X38164607Y-39168431D01*
X38164607Y-38602878D01*
X38740956Y-38602878D01*
X39083550Y-38612282D01*
G37*
G36*
X41249054Y-38790009D02*
G01*
X41233566Y-38977141D01*
X40871778Y-38991803D01*
X40509990Y-39006464D01*
X40509990Y-39176553D01*
X40509990Y-39346642D01*
X40821876Y-39361498D01*
X41133762Y-39376355D01*
X41149250Y-39563487D01*
X41164738Y-39750618D01*
X40837364Y-39750618D01*
X40509990Y-39750618D01*
X40509990Y-39948039D01*
X40509990Y-40145460D01*
X40871778Y-40160122D01*
X41233566Y-40174783D01*
X41249054Y-40361915D01*
X41264541Y-40549047D01*
X40637757Y-40549047D01*
X40010973Y-40549047D01*
X40010973Y-39575962D01*
X40010973Y-38602878D01*
X40637757Y-38602878D01*
X41264541Y-38602878D01*
X41249054Y-38790009D01*
G37*
G36*
X43304489Y-39575962D02*
G01*
X43304489Y-40549047D01*
X43042505Y-40547825D01*
X42780521Y-40546603D01*
X42406257Y-39986430D01*
X42031994Y-39426257D01*
X42017884Y-39987652D01*
X42003775Y-40549047D01*
X41755900Y-40549047D01*
X41508026Y-40549047D01*
X41508026Y-39575962D01*
X41508026Y-38602878D01*
X41770010Y-38604100D01*
X42031994Y-38605322D01*
X42406257Y-39165495D01*
X42780521Y-39725667D01*
X42794630Y-39164273D01*
X42808740Y-38602878D01*
X43056615Y-38602878D01*
X43304489Y-38602878D01*
X43304489Y-39575962D01*
G37*
G36*
X35269263Y-38726599D02*
G01*
X35395752Y-38789322D01*
X35571340Y-38882134D01*
X35778637Y-38995246D01*
X36000249Y-39118871D01*
X36218785Y-39243222D01*
X36416853Y-39358512D01*
X36577061Y-39454954D01*
X36682016Y-39522760D01*
X36714862Y-39551011D01*
X36675522Y-39586463D01*
X36572454Y-39652609D01*
X36462589Y-39715767D01*
X36209160Y-39855573D01*
X35733486Y-39578538D01*
X35537050Y-39466502D01*
X35370968Y-39376194D01*
X35254833Y-39317992D01*
X35210470Y-39301502D01*
X35157015Y-39325260D01*
X35031859Y-39391066D01*
X34849529Y-39490721D01*
X34624555Y-39616026D01*
X34371466Y-39758780D01*
X34104791Y-39910784D01*
X33839060Y-40063839D01*
X33588801Y-40209745D01*
X33368543Y-40340301D01*
X33348818Y-40352142D01*
X33258478Y-40401596D01*
X33187004Y-40413191D01*
X33099069Y-40382944D01*
X32962300Y-40308539D01*
X32834087Y-40227759D01*
X32754078Y-40161190D01*
X32739469Y-40132982D01*
X32785113Y-40096687D01*
X32904356Y-40019486D01*
X33083693Y-39909194D01*
X33309621Y-39773627D01*
X33568635Y-39620599D01*
X33847229Y-39457924D01*
X34131900Y-39293419D01*
X34409143Y-39134897D01*
X34665454Y-38990173D01*
X34887327Y-38867063D01*
X35061259Y-38773381D01*
X35173744Y-38716942D01*
X35209267Y-38703750D01*
X35269263Y-38726599D01*
G37*
D15*
X195541141Y-120257224D02*
X195541141Y-123117224D01*
X197461141Y-120257224D02*
X195541141Y-120257224D01*
X197461141Y-123117224D02*
X197461141Y-120257224D01*
X212351141Y-94167224D02*
X213251141Y-94167224D01*
X212351141Y-106367224D02*
X212351141Y-94167224D01*
X213251141Y-93167224D02*
X213551141Y-93167224D01*
X213251141Y-94167224D02*
X213251141Y-93167224D01*
X213351141Y-106367224D02*
X212351141Y-106367224D01*
X213351141Y-108367224D02*
X213351141Y-106367224D01*
X213551141Y-92367224D02*
X217951141Y-92367224D01*
X213551141Y-93167224D02*
X213551141Y-92367224D01*
X217951141Y-92367224D02*
X217951141Y-93167224D01*
X217951141Y-93167224D02*
X218751141Y-93167224D01*
X218751141Y-93167224D02*
X218751141Y-108367224D01*
X218751141Y-108367224D02*
X213351141Y-108367224D01*
X218091141Y-104307224D02*
X218691141Y-104307224D01*
X218691141Y-104107224D01*
X218091141Y-104107224D01*
X218091141Y-104307224D01*
G36*
X218091141Y-104307224D02*
G01*
X218691141Y-104307224D01*
X218691141Y-104107224D01*
X218091141Y-104107224D01*
X218091141Y-104307224D01*
G37*
X165641141Y-120257224D02*
X165641141Y-123117224D01*
X167561141Y-120257224D02*
X165641141Y-120257224D01*
X167561141Y-123117224D02*
X167561141Y-120257224D01*
X182451141Y-94167224D02*
X183351141Y-94167224D01*
X182451141Y-106367224D02*
X182451141Y-94167224D01*
X183351141Y-93167224D02*
X183651141Y-93167224D01*
X183351141Y-94167224D02*
X183351141Y-93167224D01*
X183451141Y-106367224D02*
X182451141Y-106367224D01*
X183451141Y-108367224D02*
X183451141Y-106367224D01*
X183651141Y-92367224D02*
X188051141Y-92367224D01*
X183651141Y-93167224D02*
X183651141Y-92367224D01*
X188051141Y-92367224D02*
X188051141Y-93167224D01*
X188051141Y-93167224D02*
X188851141Y-93167224D01*
X188851141Y-93167224D02*
X188851141Y-108367224D01*
X188851141Y-108367224D02*
X183451141Y-108367224D01*
X188191141Y-104307224D02*
X188791141Y-104307224D01*
X188791141Y-104107224D01*
X188191141Y-104107224D01*
X188191141Y-104307224D01*
G36*
X188191141Y-104307224D02*
G01*
X188791141Y-104307224D01*
X188791141Y-104107224D01*
X188191141Y-104107224D01*
X188191141Y-104307224D01*
G37*
X135841141Y-120257224D02*
X135841141Y-123117224D01*
X137761141Y-120257224D02*
X135841141Y-120257224D01*
X137761141Y-123117224D02*
X137761141Y-120257224D01*
X152651141Y-94167224D02*
X153551141Y-94167224D01*
X152651141Y-106367224D02*
X152651141Y-94167224D01*
X153551141Y-93167224D02*
X153851141Y-93167224D01*
X153551141Y-94167224D02*
X153551141Y-93167224D01*
X153651141Y-106367224D02*
X152651141Y-106367224D01*
X153651141Y-108367224D02*
X153651141Y-106367224D01*
X153851141Y-92367224D02*
X158251141Y-92367224D01*
X153851141Y-93167224D02*
X153851141Y-92367224D01*
X158251141Y-92367224D02*
X158251141Y-93167224D01*
X158251141Y-93167224D02*
X159051141Y-93167224D01*
X159051141Y-93167224D02*
X159051141Y-108367224D01*
X159051141Y-108367224D02*
X153651141Y-108367224D01*
X158391141Y-104307224D02*
X158991141Y-104307224D01*
X158991141Y-104107224D01*
X158391141Y-104107224D01*
X158391141Y-104307224D01*
G36*
X158391141Y-104307224D02*
G01*
X158991141Y-104307224D01*
X158991141Y-104107224D01*
X158391141Y-104107224D01*
X158391141Y-104307224D01*
G37*
X105941141Y-120257224D02*
X105941141Y-123117224D01*
X107861141Y-120257224D02*
X105941141Y-120257224D01*
X107861141Y-123117224D02*
X107861141Y-120257224D01*
X122751141Y-94167224D02*
X123651141Y-94167224D01*
X122751141Y-106367224D02*
X122751141Y-94167224D01*
X123651141Y-93167224D02*
X123951141Y-93167224D01*
X123651141Y-94167224D02*
X123651141Y-93167224D01*
X123751141Y-106367224D02*
X122751141Y-106367224D01*
X123751141Y-108367224D02*
X123751141Y-106367224D01*
X123951141Y-92367224D02*
X128351141Y-92367224D01*
X123951141Y-93167224D02*
X123951141Y-92367224D01*
X128351141Y-92367224D02*
X128351141Y-93167224D01*
X128351141Y-93167224D02*
X129151141Y-93167224D01*
X129151141Y-93167224D02*
X129151141Y-108367224D01*
X129151141Y-108367224D02*
X123751141Y-108367224D01*
X128491141Y-104307224D02*
X129091141Y-104307224D01*
X129091141Y-104107224D01*
X128491141Y-104107224D01*
X128491141Y-104307224D01*
G36*
X128491141Y-104307224D02*
G01*
X129091141Y-104307224D01*
X129091141Y-104107224D01*
X128491141Y-104107224D01*
X128491141Y-104307224D01*
G37*
X92901141Y-94167224D02*
X93801141Y-94167224D01*
X92901141Y-106367224D02*
X92901141Y-94167224D01*
X93801141Y-93167224D02*
X94101141Y-93167224D01*
X93801141Y-94167224D02*
X93801141Y-93167224D01*
X93901141Y-106367224D02*
X92901141Y-106367224D01*
X93901141Y-108367224D02*
X93901141Y-106367224D01*
X94101141Y-92367224D02*
X98501141Y-92367224D01*
X94101141Y-93167224D02*
X94101141Y-92367224D01*
X98501141Y-92367224D02*
X98501141Y-93167224D01*
X98501141Y-93167224D02*
X99301141Y-93167224D01*
X99301141Y-93167224D02*
X99301141Y-108367224D01*
X99301141Y-108367224D02*
X93901141Y-108367224D01*
X98641141Y-104307224D02*
X99241141Y-104307224D01*
X99241141Y-104107224D01*
X98641141Y-104107224D01*
X98641141Y-104307224D01*
G36*
X98641141Y-104307224D02*
G01*
X99241141Y-104307224D01*
X99241141Y-104107224D01*
X98641141Y-104107224D01*
X98641141Y-104307224D01*
G37*
X76091141Y-120257224D02*
X76091141Y-123117224D01*
X78011141Y-120257224D02*
X76091141Y-120257224D01*
X78011141Y-123117224D02*
X78011141Y-120257224D01*
X48160000Y-123120000D02*
X48160000Y-120260000D01*
X46240000Y-120260000D02*
X46240000Y-123120000D01*
X48160000Y-120260000D02*
X46240000Y-120260000D01*
X68790000Y-104310000D02*
X69390000Y-104310000D01*
X69390000Y-104110000D01*
X68790000Y-104110000D01*
X68790000Y-104310000D01*
G36*
X68790000Y-104310000D02*
G01*
X69390000Y-104310000D01*
X69390000Y-104110000D01*
X68790000Y-104110000D01*
X68790000Y-104310000D01*
G37*
X69450000Y-108370000D02*
X64050000Y-108370000D01*
X69450000Y-93170000D02*
X69450000Y-108370000D01*
X68650000Y-93170000D02*
X69450000Y-93170000D01*
X68650000Y-92370000D02*
X68650000Y-93170000D01*
X64250000Y-93170000D02*
X64250000Y-92370000D01*
X64250000Y-92370000D02*
X68650000Y-92370000D01*
X64050000Y-108370000D02*
X64050000Y-106370000D01*
X64050000Y-106370000D02*
X63050000Y-106370000D01*
X63950000Y-94170000D02*
X63950000Y-93170000D01*
X63950000Y-93170000D02*
X64250000Y-93170000D01*
X63050000Y-106370000D02*
X63050000Y-94170000D01*
X63050000Y-94170000D02*
X63950000Y-94170000D01*
D16*
X110420000Y-66190000D02*
X130740000Y-66190000D01*
X130740000Y-66190000D02*
X130740000Y-62380000D01*
X110420000Y-62380000D02*
X110420000Y-66190000D01*
X130740000Y-62380000D02*
X129470000Y-61110000D01*
X111690000Y-61110000D02*
X110420000Y-62380000D01*
X129470000Y-61110000D02*
X111690000Y-61110000D01*
X110390000Y-78790000D02*
X130710000Y-78790000D01*
X130710000Y-78790000D02*
X130710000Y-74980000D01*
X110390000Y-74980000D02*
X110390000Y-78790000D01*
X130710000Y-74980000D02*
X129440000Y-73710000D01*
X111660000Y-73710000D02*
X110390000Y-74980000D01*
X129440000Y-73710000D02*
X111660000Y-73710000D01*
%LPC*%
D17*
X123750000Y-151500000D03*
X123750000Y-31300000D03*
D18*
X208551141Y-91627224D03*
X208551141Y-133127224D03*
D19*
X208551141Y-96547224D03*
X208551141Y-97817224D03*
X208551141Y-99087224D03*
X208551141Y-100357224D03*
X208551141Y-101627224D03*
X208551141Y-102897224D03*
X208551141Y-104167224D03*
X208551141Y-110427224D03*
X208551141Y-111697224D03*
X208551141Y-112967224D03*
X208551141Y-114237224D03*
X208551141Y-115507224D03*
X208551141Y-116777224D03*
X208551141Y-118047224D03*
X208551141Y-119317224D03*
X208551141Y-120587224D03*
X208551141Y-121857224D03*
X208551141Y-123127224D03*
X208551141Y-124397224D03*
X208551141Y-125667224D03*
X208551141Y-126937224D03*
X208551141Y-128207224D03*
D20*
X196501141Y-121092224D03*
X196501141Y-123142224D03*
D21*
X216051141Y-106847224D03*
X216051141Y-93887224D03*
D19*
X216551141Y-96557224D03*
X215551141Y-97827224D03*
X215551141Y-99097224D03*
X216551141Y-100367224D03*
X215551141Y-101637224D03*
X215551141Y-102907224D03*
X216551141Y-104177224D03*
D18*
X178651141Y-91627224D03*
X178651141Y-133127224D03*
D19*
X178651141Y-96547224D03*
X178651141Y-97817224D03*
X178651141Y-99087224D03*
X178651141Y-100357224D03*
X178651141Y-101627224D03*
X178651141Y-102897224D03*
X178651141Y-104167224D03*
X178651141Y-110427224D03*
X178651141Y-111697224D03*
X178651141Y-112967224D03*
X178651141Y-114237224D03*
X178651141Y-115507224D03*
X178651141Y-116777224D03*
X178651141Y-118047224D03*
X178651141Y-119317224D03*
X178651141Y-120587224D03*
X178651141Y-121857224D03*
X178651141Y-123127224D03*
X178651141Y-124397224D03*
X178651141Y-125667224D03*
X178651141Y-126937224D03*
X178651141Y-128207224D03*
D20*
X166601141Y-121092224D03*
X166601141Y-123142224D03*
D21*
X186151141Y-106847224D03*
X186151141Y-93887224D03*
D19*
X186651141Y-96557224D03*
X185651141Y-97827224D03*
X185651141Y-99097224D03*
X186651141Y-100367224D03*
X185651141Y-101637224D03*
X185651141Y-102907224D03*
X186651141Y-104177224D03*
D18*
X148851141Y-91627224D03*
X148851141Y-133127224D03*
D19*
X148851141Y-96547224D03*
X148851141Y-97817224D03*
X148851141Y-99087224D03*
X148851141Y-100357224D03*
X148851141Y-101627224D03*
X148851141Y-102897224D03*
X148851141Y-104167224D03*
X148851141Y-110427224D03*
X148851141Y-111697224D03*
X148851141Y-112967224D03*
X148851141Y-114237224D03*
X148851141Y-115507224D03*
X148851141Y-116777224D03*
X148851141Y-118047224D03*
X148851141Y-119317224D03*
X148851141Y-120587224D03*
X148851141Y-121857224D03*
X148851141Y-123127224D03*
X148851141Y-124397224D03*
X148851141Y-125667224D03*
X148851141Y-126937224D03*
X148851141Y-128207224D03*
D20*
X136801141Y-121092224D03*
X136801141Y-123142224D03*
D21*
X156351141Y-106847224D03*
X156351141Y-93887224D03*
D19*
X156851141Y-96557224D03*
X155851141Y-97827224D03*
X155851141Y-99097224D03*
X156851141Y-100367224D03*
X155851141Y-101637224D03*
X155851141Y-102907224D03*
X156851141Y-104177224D03*
D18*
X118951141Y-91627224D03*
X118951141Y-133127224D03*
D19*
X118951141Y-96547224D03*
X118951141Y-97817224D03*
X118951141Y-99087224D03*
X118951141Y-100357224D03*
X118951141Y-101627224D03*
X118951141Y-102897224D03*
X118951141Y-104167224D03*
X118951141Y-110427224D03*
X118951141Y-111697224D03*
X118951141Y-112967224D03*
X118951141Y-114237224D03*
X118951141Y-115507224D03*
X118951141Y-116777224D03*
X118951141Y-118047224D03*
X118951141Y-119317224D03*
X118951141Y-120587224D03*
X118951141Y-121857224D03*
X118951141Y-123127224D03*
X118951141Y-124397224D03*
X118951141Y-125667224D03*
X118951141Y-126937224D03*
X118951141Y-128207224D03*
D20*
X106901141Y-121092224D03*
X106901141Y-123142224D03*
D21*
X126451141Y-106847224D03*
X126451141Y-93887224D03*
D19*
X126951141Y-96557224D03*
X125951141Y-97827224D03*
X125951141Y-99097224D03*
X126951141Y-100367224D03*
X125951141Y-101637224D03*
X125951141Y-102907224D03*
X126951141Y-104177224D03*
D18*
X89101141Y-91627224D03*
X89101141Y-133127224D03*
D19*
X89101141Y-96547224D03*
X89101141Y-97817224D03*
X89101141Y-99087224D03*
X89101141Y-100357224D03*
X89101141Y-101627224D03*
X89101141Y-102897224D03*
X89101141Y-104167224D03*
X89101141Y-110427224D03*
X89101141Y-111697224D03*
X89101141Y-112967224D03*
X89101141Y-114237224D03*
X89101141Y-115507224D03*
X89101141Y-116777224D03*
X89101141Y-118047224D03*
X89101141Y-119317224D03*
X89101141Y-120587224D03*
X89101141Y-121857224D03*
X89101141Y-123127224D03*
X89101141Y-124397224D03*
X89101141Y-125667224D03*
X89101141Y-126937224D03*
X89101141Y-128207224D03*
D21*
X96601141Y-106847224D03*
X96601141Y-93887224D03*
D19*
X97101141Y-96557224D03*
X96101141Y-97827224D03*
X96101141Y-99097224D03*
X97101141Y-100367224D03*
X96101141Y-101637224D03*
X96101141Y-102907224D03*
X97101141Y-104177224D03*
D20*
X77051141Y-121092224D03*
X77051141Y-123142224D03*
D17*
X223750000Y-151500000D03*
D20*
X47200000Y-123145000D03*
X47200000Y-121095000D03*
D17*
X26250000Y-31300000D03*
X26350000Y-151800000D03*
D19*
X67250000Y-104180000D03*
X66250000Y-102910000D03*
X66250000Y-101640000D03*
X67250000Y-100370000D03*
X66250000Y-99100000D03*
X66250000Y-97830000D03*
X67250000Y-96560000D03*
D21*
X66750000Y-93890000D03*
X66750000Y-106850000D03*
D17*
X223750000Y-31300000D03*
D22*
X128200000Y-63650000D03*
X123120000Y-63650000D03*
X118040000Y-63650000D03*
X112960000Y-63650000D03*
X128170000Y-76250000D03*
X123090000Y-76250000D03*
X118010000Y-76250000D03*
X112930000Y-76250000D03*
D19*
X59250000Y-128210000D03*
X59250000Y-126940000D03*
X59250000Y-125670000D03*
X59250000Y-124400000D03*
X59250000Y-123130000D03*
X59250000Y-121860000D03*
X59250000Y-120590000D03*
X59250000Y-119320000D03*
X59250000Y-118050000D03*
X59250000Y-116780000D03*
X59250000Y-115510000D03*
X59250000Y-114240000D03*
X59250000Y-112970000D03*
X59250000Y-111700000D03*
X59250000Y-110430000D03*
X59250000Y-104170000D03*
X59250000Y-102900000D03*
X59250000Y-101630000D03*
X59250000Y-100360000D03*
X59250000Y-99090000D03*
X59250000Y-97820000D03*
X59250000Y-96550000D03*
D18*
X59250000Y-133130000D03*
X59250000Y-91630000D03*
%LPD*%
M02*
